<?xml version="1.0" standalone="no"?>
<!DOCTYPE svg PUBLIC "-//W3C//DTD SVG 20010904//EN"
 "http://www.w3.org/TR/2001/REC-SVG-20010904/DTD/svg10.dtd">
<svg version="1.0" xmlns="http://www.w3.org/2000/svg"
 width="608.000000pt" height="608.000000pt" viewBox="0 0 608.000000 608.000000"
 preserveAspectRatio="xMidYMid meet">
<metadata>
Created by potrace 1.14, written by Peter Selinger 2001-2017
</metadata>
<g transform="translate(0.000000,608.000000) scale(0.100000,-0.100000)"
fill="#000000" stroke="none">
<path d="M2932 5920 c-22 -24 -34 -30 -69 -30 -23 0 -45 5 -49 11 -3 6 -22 18
-41 26 -27 11 -42 12 -69 3 -41 -14 -54 -35 -54 -89 0 -34 -4 -43 -29 -55 -62
-33 -55 -116 10 -116 15 0 31 -6 36 -12 4 -7 6 -84 4 -170 l-3 -157 53 -27
c73 -37 157 -64 174 -58 8 4 24 35 35 71 48 156 40 173 -71 154 -86 -16 -99
-8 -98 58 0 75 25 202 40 212 33 21 80 21 129 0 64 -27 131 -28 155 -1 28 31
31 117 6 158 -38 60 -116 71 -159 22z"/>
<path d="M4280 5501 c-35 -11 -81 -35 -153 -82 -65 -43 -81 -45 -180 -23 -27
6 -24 1 52 -117 44 -68 86 -132 93 -142 12 -16 18 -17 68 -5 30 7 111 12 180
12 189 0 326 -45 444 -146 41 -35 115 -133 128 -168 2 -5 30 0 63 12 119 40
241 1 320 -104 60 -80 79 -146 81 -283 1 -92 5 -122 27 -181 33 -88 43 -190
28 -267 -7 -31 -15 -57 -19 -57 -4 0 -279 164 -612 364 l-605 363 -7 -42 c-7
-48 -31 -91 -60 -106 -10 -5 -40 -9 -66 -8 -26 1 -74 -6 -107 -16 -33 -9 -98
-19 -145 -22 -74 -4 -93 -2 -151 20 -37 14 -106 50 -155 81 l-88 56 -95 -6
-96 -6 -32 33 c-82 88 -133 280 -133 505 0 76 -1 82 -22 88 -53 14 -58 9 -58
-45 0 -159 -101 -251 -275 -253 -68 -1 -88 3 -130 25 -65 33 -110 93 -136 182
-12 40 -23 73 -24 75 -5 6 -65 -28 -65 -36 0 -4 9 -36 21 -72 57 -181 28 -367
-77 -496 -31 -39 -32 -43 -22 -82 6 -23 15 -42 20 -42 17 0 110 94 135 138 39
65 63 156 63 232 l0 69 59 -31 c124 -64 288 -44 389 47 l51 46 6 -38 c25 -161
83 -293 163 -371 l55 -54 -11 -126 c-33 -357 -56 -582 -62 -592 -4 -7 -84 15
-236 64 -126 41 -240 77 -252 81 l-24 7 21 -21 c30 -30 28 -55 -4 -49 -33 7
-32 4 10 -22 43 -26 50 -65 10 -58 -21 4 -23 3 -14 -13 7 -14 6 -19 -3 -20
-20 -2 -21 -2 -48 6 -21 7 -23 6 -12 -7 10 -12 9 -18 -2 -27 -18 -15 -44 -8
-114 31 -39 21 -57 26 -66 19 -9 -7 -15 -53 -20 -129 -3 -64 -10 -166 -16
-227 -5 -60 -12 -149 -16 -197 -4 -48 -11 -85 -15 -82 -4 2 -153 -24 -331 -60
-356 -71 -586 -116 -592 -116 -2 0 -2 18 1 40 8 59 -15 62 -85 13 -31 -22 -62
-43 -69 -47 -8 -4 -18 6 -29 26 -9 18 -43 79 -76 134 l-60 102 -67 -35 c-36
-20 -69 -39 -74 -43 -4 -3 23 -40 60 -81 38 -41 83 -93 101 -116 l32 -41 -32
-11 c-18 -5 -49 -12 -68 -15 -28 -5 -172 -32 -198 -38 -4 0 13 -4 38 -7 40 -5
45 -9 51 -39 4 -19 20 -47 35 -64 67 -70 134 -77 213 -22 l52 35 44 -25 c24
-14 57 -37 74 -52 l31 -25 -107 -132 c-59 -73 -118 -146 -132 -163 -14 -18
-54 -67 -88 -110 -35 -44 -114 -142 -177 -220 -62 -78 -115 -146 -117 -153 -7
-19 -93 48 -160 125 -51 59 -126 164 -165 230 -11 18 -12 18 -74 -1 l-63 -21
-23 -124 c-29 -159 -57 -236 -160 -445 -114 -232 -141 -350 -113 -487 37 -177
172 -311 384 -378 89 -28 287 -38 416 -20 89 12 89 12 162 -18 205 -86 479
-82 662 10 61 31 124 81 125 99 0 21 -26 43 -40 34 -22 -13 -100 -6 -130 12
-79 46 -114 161 -69 224 42 59 188 119 291 119 27 0 48 2 48 4 0 2 -7 20 -15
39 -22 54 -19 129 6 161 31 39 110 75 193 88 l73 12 34 66 c42 83 137 178 214
217 125 63 252 94 379 94 118 0 126 7 80 70 -46 63 -44 93 8 97 30 3 43 -2 60
-21 23 -25 50 -91 63 -155 l7 -33 -36 15 -36 15 20 -39 c31 -62 30 -63 -66
-55 -80 7 -86 6 -82 -11 9 -47 149 -80 303 -71 137 7 321 73 404 143 l33 27
42 -20 c31 -15 47 -18 60 -11 25 14 43 3 60 -35 7 -19 29 -46 49 -61 119 -91
226 -316 227 -476 l0 -45 113 -2 c172 -4 159 4 200 -121 19 -59 33 -109 31
-111 -2 -2 -15 1 -29 7 -16 7 -23 17 -19 26 4 11 -6 23 -31 37 -37 22 -37 22
-16 38 30 23 9 41 -46 41 -48 0 -54 10 -21 32 36 24 1 27 -96 7 -48 -10 -89
-19 -91 -21 -2 -2 -6 -20 -10 -40 l-7 -38 38 -2 39 -1 -44 -6 c-38 -5 -46 -10
-54 -34 -8 -26 -5 -33 30 -70 22 -23 52 -60 68 -82 24 -35 22 -34 -16 10 -24
27 -56 63 -70 79 l-26 29 -26 -47 -26 -47 18 -42 c10 -23 28 -73 41 -112 24
-74 44 -105 68 -105 10 0 12 7 8 25 -10 38 11 30 39 -16 28 -43 48 -47 53 -11
4 28 13 28 42 -3 13 -14 32 -25 42 -25 14 0 18 8 18 40 0 44 8 48 45 24 23
-15 25 -15 32 2 3 10 -1 30 -10 46 -21 36 -21 48 -2 48 24 0 17 28 -14 55 -15
14 -57 46 -92 72 -40 28 -55 43 -39 39 65 -17 120 -19 125 -4 5 12 31 4 138
-38 123 -50 132 -55 133 -81 1 -15 7 -41 14 -58 l12 -30 12 40 12 40 106 0
c125 0 128 -14 5 -23 l-86 -7 39 -93 c21 -51 53 -113 69 -138 38 -55 40 -76 5
-43 -25 23 -114 193 -114 217 0 26 -18 10 -24 -20 -4 -25 9 -78 54 -212 67
-199 76 -218 98 -189 13 17 15 16 41 -14 15 -18 35 -33 45 -33 14 0 16 6 10
36 l-7 37 47 -7 c51 -8 53 -5 31 47 -19 47 -19 47 10 47 14 0 25 5 25 11 0 6
-11 24 -25 41 -33 39 -32 49 5 42 62 -13 30 30 -90 121 -95 72 -120 95 -103
95 4 0 40 -9 78 -20 87 -25 117 -25 138 -2 24 26 21 41 -8 48 -36 9 -31 27 15
53 22 12 40 26 40 30 0 14 -23 29 -49 33 -35 5 -35 20 0 40 39 23 29 39 -24
36 -41 -3 -42 -2 -42 27 0 39 -11 36 -92 -22 -78 -56 -133 -74 -184 -60 -25 6
-37 15 -37 26 1 9 -2 27 -6 40 -8 23 -7 24 33 18 38 -5 41 -3 41 18 0 13 -16
44 -35 69 -19 26 -35 48 -35 51 0 3 43 -24 95 -60 94 -64 144 -83 131 -49 -10
26 2 33 40 22 29 -8 40 -7 51 5 14 13 12 17 -11 32 -35 23 -33 33 9 51 19 8
35 18 35 23 0 6 -15 20 -32 32 -18 12 -35 24 -37 26 -3 2 4 9 14 17 24 18 13
46 -19 46 -50 0 -75 23 -36 33 25 7 17 33 -13 41 -12 3 -58 6 -102 6 -59 0
-75 3 -62 11 9 5 17 18 17 28 0 10 11 28 25 41 14 13 25 31 25 41 0 15 -5 17
-27 9 -16 -5 -64 -16 -108 -26 -77 -16 -82 -19 -132 -74 l-53 -58 66 -7 c36
-4 91 -15 122 -26 62 -21 161 -81 144 -87 -6 -2 -28 8 -49 23 -57 39 -154 65
-240 65 -41 0 -73 -3 -71 -7 55 -110 68 -141 68 -158 -1 -11 -13 6 -29 40 -16
33 -40 76 -54 95 l-25 35 66 69 c40 41 59 66 47 62 -55 -15 -71 -14 -71 4 1
20 -278 320 -298 320 -14 0 -41 84 -31 99 3 6 17 11 31 11 20 0 26 -7 36 -45
7 -25 16 -45 21 -45 13 0 301 91 307 97 10 10 -124 122 -134 114 -19 -16 -74
15 -92 51 -24 47 -91 135 -110 146 -30 17 405 179 571 213 97 20 231 15 295
-10 101 -39 184 -131 205 -229 3 -17 10 -32 15 -32 4 0 43 9 86 20 44 11 85
20 92 20 7 0 -16 -34 -50 -75 -50 -59 -69 -74 -90 -75 -26 0 -28 -3 -28 -39 0
-43 -35 -167 -50 -176 -5 -3 0 -24 10 -48 11 -23 20 -53 20 -67 1 -47 8 -49
100 -34 47 7 86 14 87 14 1 0 -29 -29 -66 -65 l-69 -64 46 -15 c182 -58 413
-40 467 38 25 35 19 81 -15 109 -16 14 -35 27 -42 29 -8 3 2 17 25 37 36 32
46 62 29 88 -5 8 14 35 53 76 52 54 70 84 118 193 32 71 65 141 75 155 9 15
34 51 55 81 25 37 41 73 48 114 6 32 20 97 32 144 17 68 22 116 23 245 0 88 7
192 14 231 24 137 -26 290 -133 401 l-60 63 37 52 c92 134 118 341 64 515 -17
56 -26 69 -91 125 -40 34 -121 105 -181 157 -153 135 -291 256 -371 326 -38
33 -113 98 -166 145 -52 47 -160 141 -239 210 -303 265 -400 353 -400 360 0
29 -183 51 -250 31z m-1126 -2524 c-4 -37 -11 -67 -15 -67 -5 0 -9 37 -9 82 0
74 2 81 15 67 13 -13 15 -29 9 -82z m179 -301 c16 -13 14 -16 -25 -38 -144
-83 -160 -90 -156 -75 3 16 136 125 153 126 6 0 18 -6 28 -13z m267 -142 c14
-36 12 -64 -4 -64 -12 0 -13 -21 -9 -117 11 -245 -61 -385 -243 -476 -97 -48
-233 -77 -321 -68 -7 0 30 43 81 95 102 102 258 304 355 458 33 54 61 100 61
103 0 5 -28 2 -120 -11 -33 -5 -34 -5 -14 10 42 30 169 96 187 96 10 0 22 -11
27 -26z m143 -222 c46 -26 48 -29 43 -62 -3 -19 -6 -47 -6 -62 0 -24 -8 -30
-81 -58 -45 -17 -83 -29 -85 -27 -3 2 1 17 7 33 7 16 12 79 13 141 l1 112 30
-25 c17 -13 52 -37 78 -52z m48 -232 c28 -16 64 -91 42 -90 -5 1 -25 16 -47
35 -25 22 -36 40 -33 50 7 18 12 18 38 5z m178 -366 c21 -27 28 -64 13 -64
-18 0 -64 59 -59 74 9 23 23 20 46 -10z m167 -171 c7 -25 0 -110 -8 -119 -13
-12 -38 11 -38 35 0 14 -5 42 -10 61 -8 29 -7 37 6 47 22 16 43 6 50 -24z
m374 -123 c11 -7 6 -10 -20 -10 -26 0 -31 3 -20 10 8 5 17 10 20 10 3 0 12 -5
20 -10z m-152 -373 c2 -10 -3 -17 -12 -17 -10 0 -16 9 -16 21 0 24 23 21 28
-4z m92 -32 c7 -9 10 -18 7 -21 -9 -9 -48 16 -42 27 9 13 21 11 35 -6z"/>
<path d="M3670 5395 c-30 -8 -72 -21 -92 -29 -32 -14 -45 -14 -83 -4 -36 10
-50 10 -65 0 -24 -15 -50 -16 -50 -1 0 16 -58 1 -107 -27 -39 -23 -113 -98
-113 -116 0 -4 8 -8 18 -8 9 0 32 -9 50 -20 26 -16 50 -20 125 -20 164 0 292
-49 404 -153 l66 -62 -6 50 c-4 28 -11 82 -17 120 -5 39 -9 96 -10 127 0 31
-5 80 -11 108 -12 57 -15 58 -109 35z"/>
<path d="M818 5206 c-156 -33 -255 -163 -281 -367 -19 -154 25 -336 109 -442
18 -23 75 -76 126 -118 51 -41 93 -82 93 -90 0 -11 -23 -15 -107 -19 -87 -4
-110 -8 -128 -25 -51 -46 -69 -131 -50 -235 23 -132 89 -230 183 -270 47 -21
65 -23 205 -22 99 1 152 -2 152 -8 0 -6 -7 -22 -16 -35 -20 -31 -10 -47 50
-77 43 -22 216 -68 335 -89 67 -12 76 -16 99 -49 20 -27 43 -42 92 -61 l67
-25 49 33 c119 81 255 101 412 61 9 -2 22 24 37 77 13 44 49 141 79 215 l56
135 -23 11 c-12 6 -62 17 -112 24 -275 38 -485 151 -552 296 -15 33 -32 55
-46 60 -65 19 -88 81 -63 167 9 30 16 82 16 114 0 129 62 279 160 386 l61 66
-44 70 c-36 54 -53 71 -82 81 -32 11 -41 9 -88 -14 -29 -14 -67 -40 -84 -58
-53 -55 -99 -141 -102 -189 -1 -24 -6 -69 -10 -99 -7 -43 -10 -50 -16 -32 -4
12 -11 22 -16 22 -12 0 -29 69 -40 167 -12 110 -39 171 -100 228 -58 55 -131
90 -226 110 -81 17 -119 18 -195 1z"/>
<path d="M2160 4468 c-25 -22 -69 -54 -99 -71 l-54 -30 31 -26 c16 -14 59 -67
94 -117 75 -104 186 -248 196 -251 4 -2 18 14 32 35 14 20 29 40 33 43 5 3 2
9 -6 12 -9 3 -16 28 -21 74 -4 37 -16 106 -27 153 -16 71 -28 96 -70 153 -28
37 -54 67 -57 67 -4 -1 -27 -19 -52 -42z"/>
<path d="M4630 2223 c0 -16 53 -94 71 -103 36 -20 49 5 26 48 -11 21 -97 70
-97 55z"/>
<path d="M4700 1775 c0 -3 7 -23 16 -45 27 -68 78 -74 60 -7 -5 18 -76 67 -76
52z"/>
<path d="M4256 1646 c-9 -35 3 -58 28 -54 28 4 35 47 10 65 -25 18 -31 16 -38
-11z"/>
<path d="M2032 1202 c-19 -13 5 -72 29 -72 20 0 24 17 13 58 -7 23 -20 27 -42
14z"/>
<path d="M3757 893 c-29 -30 -44 -54 -38 -58 6 -3 11 -17 11 -30 0 -31 11 -37
40 -22 28 14 42 60 38 120 l-3 42 -48 -52z"/>
</g>
</svg>
