<svg width="19" height="24" viewBox="0 0 19 24" fill="none" xmlns="http://www.w3.org/2000/svg">
<path d="M11.5827 1.86475V6.16739C11.5827 6.75078 11.5827 7.04247 11.6962 7.2653C11.7961 7.4613 11.9554 7.62066 12.1514 7.72052C12.3743 7.83406 12.666 7.83406 13.2493 7.83406H17.552M13.666 13.0423H5.33268M13.666 17.209H5.33268M7.41602 8.87565H5.33268M11.5827 1.58398H6.16602C4.41585 1.58398 3.54077 1.58398 2.8723 1.92459C2.28429 2.22419 1.80622 2.70226 1.50662 3.29026C1.16602 3.95874 1.16602 4.83382 1.16602 6.58398V17.4173C1.16602 19.1675 1.16602 20.0426 1.50662 20.711C1.80622 21.299 2.28429 21.7771 2.8723 22.0767C3.54077 22.4173 4.41585 22.4173 6.16602 22.4173H12.8327C14.5828 22.4173 15.4579 22.4173 16.1264 22.0767C16.7144 21.7771 17.1925 21.299 17.4921 20.711C17.8327 20.0426 17.8327 19.1675 17.8327 17.4173V7.83398L11.5827 1.58398Z" stroke="white" stroke-width="2" stroke-linecap="round" stroke-linejoin="round"/>
</svg>
