<svg width="23" height="17" viewBox="0 0 23 17" fill="none" xmlns="http://www.w3.org/2000/svg">
<path d="M1.52096 9.24355C1.3791 9.01892 1.30817 8.90661 1.26846 8.73338C1.23864 8.60325 1.23864 8.39805 1.26846 8.26793C1.30817 8.09469 1.3791 7.98238 1.52096 7.75776C2.69326 5.90153 6.18271 1.20898 11.5004 1.20898C16.8181 1.20898 20.3076 5.90153 21.4799 7.75776C21.6217 7.98238 21.6927 8.09469 21.7324 8.26793C21.7622 8.39805 21.7622 8.60325 21.7324 8.73338C21.6927 8.90661 21.6217 9.01892 21.4799 9.24354C20.3076 11.0998 16.8181 15.7923 11.5004 15.7923C6.18271 15.7923 2.69326 11.0998 1.52096 9.24355Z" stroke="#E2E2E2" stroke-width="2" stroke-linecap="round" stroke-linejoin="round"/>
<path d="M11.5004 11.6257C13.2263 11.6257 14.6254 10.2265 14.6254 8.50065C14.6254 6.77476 13.2263 5.37565 11.5004 5.37565C9.77453 5.37565 8.37542 6.77476 8.37542 8.50065C8.37542 10.2265 9.77453 11.6257 11.5004 11.6257Z" stroke="#E2E2E2" stroke-width="2" stroke-linecap="round" stroke-linejoin="round"/>
</svg>
