<svg width="35" height="35" viewBox="0 0 35 35" fill="none" xmlns="http://www.w3.org/2000/svg">
<path d="M22.7502 17.4992C22.7502 18.8916 22.1971 20.227 21.2125 21.2115C20.2279 22.1961 18.8926 22.7492 17.5002 22.7492C16.1078 22.7492 14.7724 22.1961 13.7879 21.2115C12.8033 20.227 12.2502 18.8916 12.2502 17.4992C12.2502 17.2 12.2817 16.9077 12.3359 16.6242H10.5002V23.619C10.5002 24.1055 10.8939 24.4992 11.3804 24.4992H23.6217C23.8548 24.4988 24.0783 24.4058 24.243 24.2408C24.4077 24.0758 24.5002 23.8521 24.5002 23.619V16.6242H22.6644C22.7187 16.9077 22.7502 17.2 22.7502 17.4992ZM17.5002 20.9992C17.9599 20.9991 18.4152 20.9084 18.8399 20.7324C19.2646 20.5564 19.6504 20.2984 19.9754 19.9732C20.3004 19.648 20.5582 19.2621 20.734 18.8373C20.9099 18.4125 21.0003 17.9572 21.0002 17.4975C21.0001 17.0377 20.9094 16.5825 20.7334 16.1578C20.5573 15.7331 20.2994 15.3472 19.9742 15.0222C19.649 14.6972 19.263 14.4395 18.8382 14.2636C18.4134 14.0878 17.9582 13.9974 17.4984 13.9975C16.57 13.9977 15.6796 14.3668 15.0232 15.0235C14.3668 15.6802 13.9982 16.5707 13.9984 17.4992C13.9987 18.4277 14.3677 19.3181 15.0244 19.9745C15.6812 20.6308 16.5717 20.9995 17.5002 20.9992ZM21.7002 13.8242H23.7984C23.9378 13.8242 24.0716 13.769 24.1703 13.6706C24.269 13.5721 24.3247 13.4386 24.3252 13.2992V11.201C24.3252 11.0613 24.2697 10.9273 24.1709 10.8285C24.0721 10.7297 23.9381 10.6742 23.7984 10.6742H21.7002C21.5605 10.6742 21.4265 10.7297 21.3277 10.8285C21.2289 10.9273 21.1734 11.0613 21.1734 11.201V13.2992C21.1752 13.588 21.4114 13.8242 21.7002 13.8242ZM17.5002 0.699219C13.0446 0.699219 8.77141 2.46921 5.6208 5.61982C2.47019 8.77044 0.700195 13.0436 0.700195 17.4992C0.700195 21.9549 2.47019 26.228 5.6208 29.3786C8.77141 32.5292 13.0446 34.2992 17.5002 34.2992C19.7064 34.2992 21.891 33.8647 23.9293 33.0204C25.9675 32.1761 27.8196 30.9386 29.3796 29.3786C30.9396 27.8186 32.1771 25.9666 33.0214 23.9283C33.8657 21.89 34.3002 19.7054 34.3002 17.4992C34.3002 15.293 33.8657 13.1084 33.0214 11.0701C32.1771 9.03187 30.9396 7.17985 29.3796 5.61982C27.8196 4.0598 25.9675 2.82232 23.9293 1.97804C21.891 1.13376 19.7064 0.699219 17.5002 0.699219ZM26.2502 24.305C26.2502 25.3742 25.3752 26.2492 24.3059 26.2492H10.6944C9.62519 26.2492 8.75019 25.3742 8.75019 24.305V10.6935C8.75019 9.62422 9.62519 8.74922 10.6944 8.74922H24.3059C25.3752 8.74922 26.2502 9.62422 26.2502 10.6935V24.305Z" fill="#494949"/>
</svg>
