<svg width="23" height="23" viewBox="0 0 23 23" fill="none" xmlns="http://www.w3.org/2000/svg">
<path d="M6.29232 21.9173V10.459M1.08398 12.5423V19.834C1.08398 20.9846 2.01672 21.9173 3.16732 21.9173H17.153C18.6954 21.9173 20.0071 20.792 20.2416 19.2675L21.3634 11.9758C21.6547 10.0828 20.19 8.37565 18.2748 8.37565H14.6257C14.0504 8.37565 13.584 7.90928 13.584 7.33398V3.65257C13.584 2.23398 12.434 1.08398 11.0154 1.08398C10.677 1.08398 10.3704 1.28325 10.233 1.59245L6.56725 9.84038C6.40006 10.2166 6.02702 10.459 5.61537 10.459H3.16732C2.01672 10.459 1.08398 11.3917 1.08398 12.5423Z" stroke="#E2E2E2" stroke-width="2" stroke-linecap="round" stroke-linejoin="round"/>
</svg>
