<svg width="21" height="21" viewBox="0 0 21 21" fill="none" xmlns="http://www.w3.org/2000/svg">
<path d="M19.875 7.375L19.875 1.125M19.875 1.125H13.625M19.875 1.125L11.5417 9.45833M8.41667 3.20833H6.125C4.37484 3.20833 3.49975 3.20833 2.83128 3.54894C2.24327 3.84854 1.76521 4.32661 1.4656 4.91461C1.125 5.58309 1.125 6.45817 1.125 8.20833V14.875C1.125 16.6252 1.125 17.5002 1.4656 18.1687C1.76521 18.7567 2.24327 19.2348 2.83128 19.5344C3.49975 19.875 4.37484 19.875 6.125 19.875H12.7917C14.5418 19.875 15.4169 19.875 16.0854 19.5344C16.6734 19.2348 17.1515 18.7567 17.4511 18.1687C17.7917 17.5002 17.7917 16.6252 17.7917 14.875V12.5833" stroke="#E2E2E2" stroke-width="2" stroke-linecap="round" stroke-linejoin="round"/>
</svg>
