<svg width="21" height="22" viewBox="0 0 21 22" fill="none" xmlns="http://www.w3.org/2000/svg">
<path d="M5.29167 6.85417H10.5M5.29167 10.5H13.625M8.08724 16.75H14.875C16.6252 16.75 17.5002 16.75 18.1687 16.4094C18.7567 16.1098 19.2348 15.6317 19.5344 15.0437C19.875 14.3752 19.875 13.5002 19.875 11.75V6.125C19.875 4.37484 19.875 3.49975 19.5344 2.83128C19.2348 2.24327 18.7567 1.76521 18.1687 1.4656C17.5002 1.125 16.6252 1.125 14.875 1.125H6.125C4.37484 1.125 3.49975 1.125 2.83128 1.4656C2.24327 1.76521 1.76521 2.24327 1.4656 2.83128C1.125 3.49975 1.125 4.37484 1.125 6.125V19.1828C1.125 19.7379 1.125 20.0154 1.23878 20.1579C1.33773 20.2819 1.48778 20.354 1.6464 20.3538C1.82878 20.3536 2.04549 20.1803 2.47891 19.8335L4.96376 17.8457C5.47137 17.4396 5.72518 17.2365 6.0078 17.0921C6.25854 16.964 6.52544 16.8704 6.80127 16.8138C7.11215 16.75 7.43718 16.75 8.08724 16.75Z" stroke="#E2E2E2" stroke-width="2" stroke-linecap="round" stroke-linejoin="round"/>
</svg>
