<svg width="35" height="35" viewBox="0 0 35 35" fill="none" xmlns="http://www.w3.org/2000/svg">
<path d="M17.5002 0.699219C8.22659 0.699219 0.700195 8.22562 0.700195 17.4992C0.700195 26.7728 8.22659 34.2992 17.5002 34.2992C26.7738 34.2992 34.3002 26.7728 34.3002 17.4992C34.3002 8.22562 26.7738 0.699219 17.5002 0.699219ZM25.2954 12.1232C25.0434 14.7776 23.9514 21.2288 23.397 24.2024C23.1618 25.4624 22.6914 25.8824 22.2546 25.9328C21.2802 26.0168 20.541 25.2944 19.6002 24.6728C18.1218 23.6984 17.2818 23.0936 15.8538 22.1528C14.1906 21.0608 15.2658 20.456 16.2234 19.4816C16.4754 19.2296 20.7762 15.3152 20.8602 14.9624C20.8719 14.909 20.8703 14.8535 20.8557 14.8008C20.841 14.7481 20.8138 14.6998 20.7762 14.66C20.6754 14.576 20.541 14.6096 20.4234 14.6264C20.2722 14.66 17.9202 16.2224 13.3338 19.3136C12.6618 19.7672 12.057 20.0024 11.5194 19.9856C10.9146 19.9688 9.77219 19.6496 8.91539 19.364C7.857 19.028 7.03379 18.8432 7.101 18.2552C7.13459 17.9528 7.5546 17.6504 8.3442 17.3312C13.2498 15.1976 16.509 13.7864 18.1386 13.1144C22.809 11.1656 23.7666 10.8296 24.405 10.8296C24.5394 10.8296 24.8586 10.8632 25.0602 11.0312C25.2282 11.1656 25.2786 11.3504 25.2954 11.4848C25.2786 11.5856 25.3122 11.888 25.2954 12.1232Z" fill="#494949"/>
</svg>
