<svg width="35" height="35" viewBox="0 0 35 35" fill="none" xmlns="http://www.w3.org/2000/svg">
<path d="M17.5002 0.699219C8.2217 0.699219 0.700195 8.22072 0.700195 17.4992C0.700195 26.7777 8.2217 34.2992 17.5002 34.2992C26.7787 34.2992 34.3002 26.7777 34.3002 17.4992C34.3002 8.22072 26.7787 0.699219 17.5002 0.699219ZM23.9612 19.6535C23.9612 19.6535 25.4469 21.12 25.8127 21.8007C25.8232 21.8147 25.8284 21.8287 25.8319 21.8357C25.9807 22.086 26.0157 22.2802 25.9422 22.4255C25.8197 22.667 25.3997 22.786 25.2562 22.7965H22.6312C22.4492 22.7965 22.0677 22.7492 21.6057 22.4307C21.2504 22.1822 20.9004 21.7745 20.5592 21.3772C20.0499 20.7857 19.6089 20.2747 19.1644 20.2747C19.108 20.2746 19.0519 20.2835 18.9982 20.301C18.6622 20.4095 18.2317 20.889 18.2317 22.1665C18.2317 22.5655 17.9167 22.7947 17.6944 22.7947H16.4922C16.0827 22.7947 13.9494 22.6512 12.0594 20.658C9.74594 18.2167 7.66344 13.3202 7.64594 13.2747C7.51469 12.958 7.78594 12.7882 8.08169 12.7882H10.7329C11.0864 12.7882 11.2019 13.0035 11.2824 13.1942C11.3769 13.4165 11.7234 14.3002 12.2922 15.2942C13.2144 16.9147 13.7797 17.5727 14.2329 17.5727C14.3179 17.5717 14.4014 17.5501 14.4762 17.5097C15.0677 17.1807 14.9574 15.072 14.9312 14.6345C14.9312 14.5522 14.9294 13.6912 14.6267 13.2782C14.4097 12.979 14.0404 12.8652 13.8164 12.8232C13.9071 12.6981 14.0266 12.5967 14.1647 12.5275C14.5707 12.3245 15.3022 12.2947 16.0284 12.2947H16.4327C17.2202 12.3052 17.4232 12.356 17.7084 12.4277C18.2859 12.566 18.2982 12.9387 18.2474 14.2145C18.2317 14.5767 18.2159 14.9862 18.2159 15.4692C18.2159 15.5742 18.2107 15.6862 18.2107 15.8052C18.1932 16.4545 18.1722 17.1912 18.6307 17.494C18.6905 17.5315 18.7596 17.5515 18.8302 17.5517C18.9894 17.5517 19.4689 17.5517 20.7674 15.324C21.1679 14.6069 21.5159 13.8618 21.8087 13.0945C21.8349 13.049 21.9119 12.909 22.0029 12.8547C22.0701 12.8205 22.1446 12.8031 22.2199 12.804H25.3367C25.6762 12.804 25.9089 12.8547 25.9527 12.986C26.0297 13.1942 25.9387 13.8295 24.5159 15.7562L23.8807 16.5945C22.5909 18.285 22.5909 18.3707 23.9612 19.6535Z" fill="#494949"/>
</svg>
