<svg width="12" height="13" viewBox="0 0 12 13" fill="none" xmlns="http://www.w3.org/2000/svg">
<path fill-rule="evenodd" clip-rule="evenodd" d="M6 12.3068C2.688 12.3068 0 9.62476 0 6.30676C0 2.99476 2.688 0.306763 6 0.306763C9.318 0.306763 12 2.99476 12 6.30676C12 9.62476 9.318 12.3068 6 12.3068ZM7.91401 8.53279C7.98601 8.57479 8.06401 8.59879 8.14802 8.59879C8.29801 8.59879 8.44802 8.52079 8.53201 8.37679C8.65802 8.1668 8.59201 7.89079 8.37601 7.75879L6.24002 6.48679V3.7148C6.24002 3.4628 6.03602 3.2648 5.79001 3.2648C5.54401 3.2648 5.34001 3.4628 5.34001 3.7148V6.74479C5.34001 6.90079 5.42402 7.0448 5.56202 7.12879L7.91401 8.53279Z" fill="#81BC3D"/>
</svg>
