<svg width="12" height="14" viewBox="0 0 12 14" fill="none" xmlns="http://www.w3.org/2000/svg">
<path fill-rule="evenodd" clip-rule="evenodd" d="M0.333374 6.18519C0.333374 3.11861 2.89596 0.640015 5.99567 0.640015C9.10412 0.640015 11.6667 3.11861 11.6667 6.18519C11.6667 7.73047 11.1047 9.1651 10.1797 10.3811C9.15924 11.7224 7.90148 12.891 6.48574 13.8083C6.16172 14.0203 5.86929 14.0363 5.51367 13.8083C4.08986 12.891 2.8321 11.7224 1.82037 10.3811C0.894696 9.1651 0.333374 7.73047 0.333374 6.18519ZM4.12953 6.35785C4.12953 7.38515 4.96781 8.19313 5.99567 8.19313C7.0242 8.19313 7.87055 7.38515 7.87055 6.35785C7.87055 5.33854 7.0242 4.49124 5.99567 4.49124C4.96781 4.49124 4.12953 5.33854 4.12953 6.35785Z" fill="#81BC3D"/>
</svg>
