<svg width="15" height="14" viewBox="0 0 15 14" fill="none" xmlns="http://www.w3.org/2000/svg">
<g opacity="0.8" clip-path="url(#clip0_59_1201)">
<path d="M8.11224 12.613C8.02029 12.705 7.9079 12.751 7.77508 12.751C7.64226 12.751 7.52987 12.705 7.43792 12.613L2.65631 8.00002C2.60522 7.95915 2.53498 7.89274 2.44558 7.80079C2.35618 7.70883 2.21442 7.54153 2.02029 7.29887C1.82617 7.05621 1.65247 6.80717 1.49922 6.55174C1.34596 6.29632 1.20931 5.98725 1.08926 5.62454C0.969205 5.26183 0.90918 4.90934 0.90918 4.56707C0.90918 3.44319 1.23357 2.56451 1.88236 1.93105C2.53115 1.29759 3.4277 0.980862 4.57201 0.980862C4.88875 0.980862 5.21186 1.03578 5.54136 1.14561C5.87087 1.25545 6.17738 1.40359 6.4609 1.59006C6.74443 1.77652 6.98836 1.95149 7.1927 2.11496C7.39705 2.27844 7.59117 2.45213 7.77508 2.63603C7.95899 2.45213 8.15311 2.27844 8.35746 2.11496C8.5618 1.95149 8.80573 1.77652 9.08926 1.59006C9.37278 1.40359 9.67929 1.25545 10.0088 1.14561C10.3383 1.03578 10.6614 0.980862 10.9781 0.980862C12.1225 0.980862 13.019 1.29759 13.6678 1.93105C14.3166 2.56451 14.641 3.44319 14.641 4.56707C14.641 5.69606 14.0561 6.84548 12.8862 8.01534L8.11224 12.613Z" fill="#81BC3D"/>
</g>
<defs>
<clipPath id="clip0_59_1201">
<rect width="14.39" height="14" fill="white" transform="matrix(1 0 0 -1 0.580078 14)"/>
</clipPath>
</defs>
</svg>
