<svg width="76" height="75" viewBox="0 0 76 75" fill="none" xmlns="http://www.w3.org/2000/svg">
<path opacity="0.3" d="M66.6283 63.8472C64.6835 65.8516 62.9429 67.0301 61.6111 67.9197C48.6177 76.5957 33.7646 74.0949 29.1725 73.2404C21.7636 71.8617 15.5093 70.8886 10.1358 66.0338C-2.07413 55.0026 -1.48023 31.9905 7.84985 17.7353C8.95599 16.0451 18.2717 2.2361 33.1569 0.289485C33.5209 0.242026 33.7932 0.214982 34.0319 0.189795C36.3345 -0.0541288 50.6041 -1.34083 62.2392 8.4071C63.9048 9.8025 66.585 12.3194 69.0707 16.158C78.1582 30.195 78.1881 51.9337 66.6283 63.8472Z" fill="url(#paint0_linear_93_956)"/>
<path d="M65.1633 47.2164C65.1516 46.952 65.109 46.69 65.0363 46.4356C64.9596 46.1797 64.8332 45.9318 64.7857 45.6667C64.7417 45.4225 64.8417 45.212 64.9342 44.9906C65.0402 44.7384 65.1222 44.4937 65.1633 44.2217C65.2447 43.6835 65.128 43.1384 64.9321 42.6375C64.5707 41.7138 63.845 40.9091 63.0199 40.3701C62.6212 40.1076 62.1882 39.9014 61.7332 39.7571C61.2393 39.6033 60.6637 39.5842 60.2174 39.3064C59.8168 39.0564 59.5281 38.6552 59.1654 38.3559C58.7581 38.0194 58.269 37.8465 57.7453 37.7991C57.2312 37.7538 56.7142 37.8314 56.2001 37.7808C55.7536 37.7368 55.4111 37.4984 55.0622 37.2346C54.2957 36.6553 53.5244 36.146 52.5301 36.4795C52.0701 36.6338 51.6552 36.9302 51.1514 36.886C50.627 36.8409 50.1516 36.7465 49.6216 36.8027C47.7217 37.005 46.1507 38.5396 45.8037 40.39C45.785 40.5 45.8089 40.6131 45.8708 40.706C45.8177 40.7641 45.7647 40.824 45.7159 40.8874C45.1679 41.6016 45.0017 42.5667 45.2153 43.4327C45.4627 44.4338 46.0935 45.2027 46.8327 45.8875C47.0135 46.0551 47.2131 46.2346 47.3028 46.4708C47.3924 46.7071 47.3558 46.9852 47.3221 47.2318C47.254 47.7512 47.1601 48.2592 47.3269 48.7696C47.4812 49.2431 47.7882 49.6426 48.1257 50.0016C48.5335 50.4354 48.9609 50.8522 49.379 51.2764C49.7971 51.7006 50.2171 52.1296 50.6389 52.5535C50.9966 52.9125 51.3773 53.271 51.8267 53.5123C52.3072 53.77 52.8101 53.8654 53.3505 53.7774C53.636 53.7302 53.9303 53.6146 54.2225 53.6321C54.481 53.6475 54.7233 53.7697 54.9582 53.8694C55.9419 54.2862 57.0035 54.3231 58.0025 53.9291C58.4156 53.766 58.8194 53.3479 59.2608 53.2906C59.5284 53.2562 59.8131 53.372 60.0785 53.402C60.3218 53.4263 60.5671 53.4217 60.8092 53.3882C61.9284 53.2482 62.6609 52.4814 63.3028 51.6245C63.9553 50.7535 64.5935 49.8216 64.9352 48.7796C65.102 48.278 65.1932 47.7472 65.1633 47.2164Z" fill="url(#paint1_linear_93_956)"/>
<path d="M34.2089 14.1666C33.1982 16.1381 33.6741 18.378 34.4019 20.3516C34.824 21.496 35.3922 22.5053 36.5776 22.9765C37.5565 23.3657 38.6457 23.6144 39.6895 23.7419C41.8077 24.0007 44.1 23.6298 45.7815 22.2306C46.2179 21.8679 46.618 21.4517 46.9298 20.9766C46.9722 20.9121 47.0271 20.8363 47.0669 20.7645C47.2233 20.8222 47.3826 20.872 47.5441 20.9137C48.2913 21.1067 48.9984 20.8806 49.5294 20.4084C49.7535 20.3766 49.9704 20.2055 49.9688 19.9181V19.9051C50.0019 19.8558 50.034 19.8055 50.0642 19.7535C50.2233 19.478 50.1453 19.132 49.9582 18.8799C49.9295 17.5685 49.8153 16.2635 49.2667 15.0439C48.9589 14.3599 48.5392 13.7665 48.0153 13.2309C47.4914 12.6954 46.8916 12.2454 46.421 11.6666C45.9104 11.0385 45.781 10.2452 45.3504 9.57207C45.0259 9.06487 44.5099 8.673 43.9431 8.47335C42.7447 8.05153 41.3482 8.30738 40.3836 9.13752C39.5437 9.86054 39.028 10.836 38.7398 11.884C36.9557 11.4156 35.0436 12.5387 34.2089 14.1666Z" fill="url(#paint2_linear_93_956)"/>
<path d="M52.9385 38.3922C52.8884 40.0959 53.5324 41.7151 54.821 42.8464C55.7261 43.6402 56.8808 44.1339 58.0659 44.1095C58.3634 45.7459 59.289 47.2495 60.7313 48.1451C62.3569 49.1542 64.3796 49.3038 66.1509 48.6104C67.0556 48.2565 67.8316 47.915 68.8139 47.8349C69.7067 47.762 70.61 47.7761 71.4931 47.6098C73.2332 47.2821 74.7055 46.0858 75.0963 44.3126C75.4041 42.9148 74.9539 41.4871 73.9785 40.5061C76.2422 38.2896 76.7608 34.6241 74.7315 31.991C73.8133 30.7998 72.4179 29.9609 70.9401 29.6531C69.7857 28.1773 68.1827 27.0813 66.1963 27.3043C64.6739 27.4745 63.4787 28.6214 63.1372 30.0171C61.8218 29.5478 60.3185 29.6176 59.0058 30.1049C55.7948 31.2969 53.0398 34.9454 52.9385 38.3922Z" fill="url(#paint3_linear_93_956)"/>
<path d="M30.6175 29.8371C30.9672 31.4181 31.9363 32.7599 33.3858 33.5015C34.4039 34.0225 35.5819 34.2091 36.6681 33.9114C37.3222 35.3497 38.5241 36.5198 40.0603 37.0095C41.7919 37.5615 43.69 37.2295 45.1604 36.1796C45.9115 35.6435 46.547 35.1488 47.4331 34.8468C48.2383 34.5724 49.0738 34.3754 49.8488 34.0172C51.3754 33.3114 52.4534 31.8675 52.4017 30.1433C52.3606 28.7845 51.6143 27.5739 50.4883 26.897C52.0584 24.3294 51.6851 20.8328 49.2042 18.8788C48.0819 17.9951 46.6017 17.5465 45.1691 17.6062C43.7639 16.5149 42.0315 15.8785 40.2541 16.5456C38.8913 17.056 38.0566 18.3902 38.0662 19.7537C36.7458 19.6267 35.3772 20.0403 34.2814 20.7941C31.6004 22.6373 29.9099 26.6374 30.6175 29.8371Z" fill="url(#paint4_linear_93_956)"/>
<path d="M39.331 39.0743C39.7799 40.5498 40.951 42.0223 42.3024 42.3005C42.8499 43.6816 43.6694 43.9218 44.6926 44.9309C46.584 46.7971 48.1369 47.7606 50.3224 47.2344C52.3374 46.75 53.6745 43.9056 54.8456 43.8019C56.0167 43.6983 59.6732 44.7246 61.16 44.8004C64.5323 44.9722 67.3231 43.3406 69.0528 40.4575C70.413 38.1909 69.4476 35.2055 69.5606 34.5151C69.6735 33.8247 73.5087 31.4209 74.443 29.4194C75.4306 27.3098 75.5253 24.4198 74.2227 22.1131C73.5781 20.9731 72.4442 20.0605 71.4282 19.3558C71.1416 19.1569 70.8488 19.0021 70.5559 18.8239C70.3082 18.6733 70.3172 18.5736 70.3082 18.2825C70.2881 17.5876 70.2107 16.886 70.0431 16.1898C69.3665 13.3942 67.7285 11.1027 65.3627 9.88966C63.3315 8.84821 60.7173 8.96408 59.6421 8.99218C58.567 9.02029 57.9408 6.8255 55.2009 6.52643C52.461 6.22736 51.5171 8.20208 50.3905 8.23178C45.5349 6.73324 42.4296 9.3867 41.065 11.5078C39.3551 14.1639 40.32 15.7719 40.2696 16.3242C39.9429 17.3248 38.1453 17.6289 37.3767 18.0123C35.591 18.9029 34.7614 21.4943 35.2108 23.9529C35.5213 25.6514 36.7422 26.8922 36.8965 27.7868C37.0508 28.6813 35.4974 31.0288 36.0524 32.9155C36.5789 34.7054 38.4322 36.56 39.16 37.103C39.8878 37.646 39.1279 38.4075 39.331 39.0743Z" fill="url(#paint5_linear_93_956)"/>
<path d="M52.3541 42.0214C41.0008 44.0205 24.1032 60.6325 24.1032 60.6325L19.2751 52.0151C35.6573 45.9769 34.5437 35.4002 36.3694 32.217C36.8148 31.4404 38.0064 31.3526 37.7113 32.9535C36.638 38.7777 35.2524 42.3146 35.2524 42.3146C41.8293 37.7511 44.3486 33.4528 47.1344 28.5674C47.1344 28.5674 48.4036 27.7017 48.0735 29.3116C47.8988 30.1624 46.5869 33.2759 44.2956 36.2804C48.5969 34.065 49.9064 30.789 51.2474 30.3006C51.7032 30.1343 52.4363 30.6532 52.4363 30.6532C52.4363 30.6532 46.7484 38.3198 37.3178 44.8252C37.3178 44.8252 47.1461 38.8429 51.0608 38.4145C51.7878 38.3447 51.9047 38.9978 51.0226 39.602C51.0226 39.602 48.9015 40.3974 46.0595 42.1836C49.7897 41.3803 50.5019 41.0857 51.8005 40.8314C53.0991 40.5772 53.2179 41.4129 52.3541 42.0214Z" fill="url(#paint6_linear_93_956)"/>
<path d="M35.7984 24.1034C36.2491 24.8803 36.8265 25.6486 37.6045 26.124C38.0098 26.3714 38.4555 26.5437 38.928 26.6031C39.1804 26.6349 39.4339 26.6227 39.6863 26.5959C39.9514 26.5678 40.3001 26.4419 40.5647 26.5005C41.0234 26.6023 41.442 27.0451 41.8983 27.21C42.3018 27.3544 42.7265 27.4307 43.155 27.4359C44.1419 27.4452 45.1141 27.1278 45.8859 26.5079C46.272 26.1977 46.5427 25.8066 46.812 25.3986C47.0947 24.9701 47.5279 25.1287 47.9839 25.0025C49.0853 24.6984 49.8049 23.7084 50.2593 22.7184C50.8956 21.332 51.0977 19.2891 50.0361 18.0854C50.5579 17.1105 50.218 15.7986 49.391 15.0324C49.0519 14.7237 48.6695 14.4664 48.256 14.2685C48.0841 13.5248 47.6064 12.8718 46.8526 12.5335C46.0344 12.1663 45.0542 12.3015 44.3264 12.7986C42.3339 11.054 39.3877 10.6293 37.0116 11.9414C35.7247 12.6523 34.597 13.822 34.1163 15.2312C33.7234 16.3824 33.9347 17.6941 34.8113 18.4645C34.1224 20.2871 34.859 22.4853 35.7984 24.1034Z" fill="url(#paint7_linear_93_956)"/>
<path d="M60.7225 30.2875C60.4619 30.4436 60.2207 30.6299 60.0037 30.8424C59.7873 31.0593 59.606 31.3226 59.3655 31.5145C59.1431 31.6924 58.8763 31.7065 58.6022 31.7341C58.2904 31.7656 57.9979 31.8157 57.7007 31.9226C57.1129 32.1347 56.6264 32.5496 56.2279 33.021C55.493 33.8904 55.0778 35.0626 54.9836 36.1894C54.9367 36.7353 54.9651 37.285 55.0679 37.8231C55.1825 38.4064 55.4776 38.9969 55.4391 39.5995C55.4057 40.1404 55.1586 40.6513 55.0544 41.1803C54.9372 41.7752 55.03 42.3636 55.2692 42.9172C55.5041 43.461 55.8649 43.9401 56.0948 44.4868C56.2942 44.9616 56.2406 45.4375 56.1651 45.9336C55.9988 47.0238 55.9055 48.0793 56.786 48.9015C57.193 49.2817 57.718 49.54 57.9484 50.07C58.1894 50.6238 58.3538 51.1552 58.7003 51.6608C59.9422 53.4679 62.3491 54.2151 64.4065 53.5549C64.5276 53.5136 64.6285 53.4277 64.6886 53.3147C64.7769 53.3375 64.866 53.3574 64.9564 53.3719C65.9764 53.5347 67.0414 53.1755 67.7989 52.4867C68.6738 51.6913 69.1057 50.6336 69.3926 49.5127C69.4629 49.2385 69.535 48.9392 69.7246 48.7199C69.9141 48.5006 70.2153 48.3864 70.4815 48.2846C71.0431 48.0695 71.607 47.8868 72.0326 47.439C72.4263 47.0249 72.6617 46.4968 72.8396 45.9599C73.0549 45.3113 73.2421 44.6522 73.4415 43.9979C73.6409 43.3435 73.845 42.686 74.0425 42.0287C74.2096 41.4719 74.3634 40.8915 74.3607 40.3053C74.3586 39.6796 74.1804 39.1197 73.7952 38.6231C73.5918 38.3606 73.3142 38.1265 73.1724 37.8221C73.0467 37.553 73.0379 37.2414 73.0101 36.9501C72.8935 35.7304 72.351 34.6378 71.4074 33.8448C71.0174 33.5168 70.3734 33.3379 70.0759 32.9235C69.8948 32.6721 69.8563 32.3216 69.7415 32.0374C69.633 31.7787 69.4943 31.5337 69.3285 31.3075C68.5757 30.2541 67.402 29.9338 66.1864 29.7541C64.9508 29.5714 63.6628 29.4359 62.4233 29.6605C61.8273 29.7694 61.2419 29.9675 60.7225 30.2875Z" fill="url(#paint8_linear_93_956)"/>
<path d="M47.9456 13.161C46.6009 14.3011 45.8012 15.916 45.8246 17.6885C45.8402 18.9346 46.2591 20.1627 47.0972 21.0572C46.0443 22.4176 45.5284 24.1694 45.8373 25.8978C46.1854 27.8455 47.4694 29.5036 49.2273 30.3871C50.125 30.8378 50.9241 31.1986 51.6652 31.8983C52.3386 32.5346 52.9527 33.2386 53.6913 33.803C55.1467 34.9145 57.0851 35.2191 58.7186 34.2933C60.0066 33.5634 60.793 32.2297 60.8728 30.8015C64.1427 31.0091 67.3198 28.8731 67.9413 25.4914C68.2223 23.9618 67.902 22.3097 67.117 20.9594C67.4531 19.0504 67.1864 17.0603 65.6423 15.687C64.4585 14.6341 62.7499 14.5082 61.4404 15.2097C60.8919 13.8737 59.7985 12.766 58.516 12.0936C55.3779 10.4498 50.667 10.8541 47.9456 13.161Z" fill="url(#paint9_linear_93_956)"/>
<path d="M19.2749 52.015C20.7748 51.7213 25.737 58.2009 24.1025 60.6319C22.4679 63.0629 16.3144 52.5954 19.2749 52.015Z" fill="url(#paint10_linear_93_956)"/>
<path d="M27.4705 48.7227C27.5259 48.7442 27.8475 48.8677 28.1664 48.7357C30.086 47.9403 25.7007 40.4635 28.0445 32.5296C28.999 29.295 30.6616 27.3767 30.1186 24.0851C30.02 23.4875 29.6944 21.6496 28.3605 19.9023C27.5206 18.8031 26.9094 18.5623 25.803 17.6275C22.3279 14.6906 22.4406 12.0658 20.9219 11.9801C19.2266 11.8852 16.8349 15.0292 17.1684 17.781C17.5354 20.8104 20.9763 21.4764 20.8872 24.1164C20.818 26.1693 18.7184 26.3173 18.3496 28.7941C17.8612 32.0837 21.0855 35.0349 21.4962 35.401C23.3283 37.0345 23.9529 36.3229 25.1442 37.5661C28.3815 40.9458 25.434 47.9408 27.4705 48.7227Z" fill="url(#paint11_linear_93_956)"/>
<path d="M22.1773 18.6426C22.44 18.8225 22.6926 19.0168 22.9339 19.2245C23.1765 19.4306 23.4104 19.647 23.6358 19.8736C23.8606 20.1 24.0788 20.3336 24.2859 20.5775C24.4929 20.8215 24.6926 21.0723 24.8792 21.3334C24.9757 21.4618 25.0611 21.5986 25.1526 21.7311C25.2372 21.8677 25.3268 22.0013 25.4071 22.141C25.4875 22.2808 25.5704 22.4186 25.6457 22.5618C25.6834 22.6331 25.7229 22.7034 25.7589 22.7758L25.865 22.994C25.9374 23.1385 25.9957 23.2896 26.0609 23.4375C26.1262 23.5855 26.1771 23.7398 26.2354 23.8909C26.285 24.0452 26.3388 24.1982 26.3844 24.3541L26.4494 24.5887C26.4716 24.667 26.4931 24.7454 26.5085 24.8252C26.6538 25.4601 26.7266 26.1094 26.7254 26.7607V27.0052L26.7171 27.2417L26.7007 27.7144C26.6888 28.0294 26.6824 28.3444 26.6729 28.6594C26.6398 29.9196 26.6291 31.1795 26.6408 32.4391C26.6673 34.9579 26.7943 37.4727 27.1761 39.9641C27.35 41.2238 27.4457 42.488 27.5083 43.7521C27.5709 45.0163 27.5929 46.2815 27.5762 47.5465H27.5033C27.4502 46.2849 27.368 45.0248 27.2646 43.768C27.2098 43.1399 27.149 42.5123 27.0756 41.8856C27.0022 41.2588 26.9216 40.636 26.8166 40.0172C26.5931 38.7737 26.4388 37.5063 26.3298 36.2438C26.2269 34.9791 26.1726 33.7117 26.1442 32.4449C26.1158 31.1781 26.1291 29.911 26.1548 28.6453C26.163 28.329 26.1681 28.0124 26.1787 27.6961L26.1932 27.2218L26.2004 26.9848L26.2033 26.7554C26.2097 26.1428 26.1466 25.5315 26.0151 24.9332C25.9862 24.7826 25.9432 24.6351 25.909 24.4856C25.8698 24.3371 25.8223 24.191 25.7794 24.0434C25.7263 23.8986 25.6805 23.7517 25.6248 23.6083C25.5691 23.4648 25.5148 23.3201 25.4493 23.1804C25.2034 22.6111 24.9098 22.0638 24.5714 21.5442C24.4062 21.2807 24.2249 21.0269 24.0411 20.7753C23.8521 20.5269 23.6583 20.2816 23.4552 20.0433C23.04 19.5729 22.607 19.1143 22.134 18.7012L22.1773 18.6426Z" fill="url(#paint12_linear_93_956)"/>
<path d="M23.8801 40.2952C24.1561 40.4227 24.5875 40.4476 24.8446 40.2384C25.837 39.4311 23.0152 36.1265 22.0239 31.2944C20.8766 25.6995 23.1724 22.8769 20.8393 20.3367C19.7164 19.1149 18.8189 19.3692 17.7563 17.8115C16.2766 15.6427 17.2904 14.0848 16.1124 12.3924C14.7555 10.4472 11.3066 9.4818 9.0543 10.7258C6.02568 12.3983 5.97371 17.6148 7.76814 20.2253C8.93473 21.9222 11.0293 22.7367 10.8148 23.2433C10.6096 23.7269 8.77326 22.8146 7.80552 23.6453C6.54004 24.7323 7.04883 28.5683 9.05855 29.816C10.9084 30.9646 13.8405 29.8027 14.012 30.3993C14.0797 30.6347 13.626 30.8156 13.6236 31.1175C13.6196 31.6568 15.0554 32.343 20.1412 33.1668C21.5482 33.9677 22.2119 34.8748 22.5576 35.5689C23.5781 37.6173 22.8278 39.8084 23.8801 40.2952Z" fill="url(#paint13_linear_93_956)"/>
<path d="M11.9419 14.689C12.0368 15.8638 12.2425 17.0221 12.5843 18.1392C12.9217 19.252 13.3991 20.3175 14.0049 21.3102C14.3087 21.8041 14.6388 22.2832 14.9859 22.7522C15.164 22.9842 15.338 23.2183 15.522 23.4471C15.706 23.676 15.8841 23.9077 16.0671 24.1373L17.1737 25.5202L17.4487 25.8689L17.7191 26.2223C17.9002 26.4569 18.0752 26.6966 18.2518 26.9353C18.6044 27.4125 18.9441 27.8995 19.2784 28.3898C19.4433 28.6364 19.6098 28.8819 19.7678 29.1322L20.0064 29.5071L20.2411 29.8851L20.4744 30.264L20.7016 30.6466L20.9281 31.0295L21.1476 31.4166L21.3647 31.805L21.5739 32.1976C21.7134 32.4596 21.8539 32.7205 21.9843 32.9872L22.1837 33.3849L22.2834 33.5838L22.3781 33.785C22.5019 34.0549 22.6286 34.323 22.7493 34.5937L23.0987 35.4121C23.2132 35.6855 23.3153 35.9644 23.4222 36.2409C23.8358 37.3524 24.1852 38.4882 24.4297 39.6458L24.3663 39.6617C24.0228 38.5371 23.6154 37.4329 23.1462 36.3547L22.9653 35.9527C22.9046 35.8202 22.8503 35.6826 22.7848 35.5511L22.4038 34.757C22.1387 34.2339 21.8714 33.711 21.5882 33.1969C21.4512 32.9376 21.304 32.6836 21.1582 32.428L20.9395 32.0462L20.7125 31.669L20.4882 31.2903L20.257 30.916L20.0258 30.544L19.7872 30.1728C19.1495 29.1876 18.488 28.2185 17.787 27.2778C17.086 26.3371 16.3537 25.4197 15.6214 24.4907C15.4387 24.2579 15.2552 24.0257 15.0765 23.7884C14.8978 23.5511 14.7234 23.3095 14.5476 23.0696C14.205 22.5812 13.8734 22.0825 13.5753 21.5612C13.5016 21.4305 13.4335 21.2961 13.3632 21.1635L13.2572 20.9644L13.1607 20.7608C13.0976 20.6245 13.03 20.4906 12.9706 20.3528L12.7988 19.9386C12.7381 19.8013 12.6927 19.6581 12.6423 19.5171L12.5684 19.305C12.5434 19.2344 12.5183 19.1639 12.4986 19.0915C12.4156 18.8038 12.3255 18.5188 12.2563 18.2282C11.975 17.0702 11.8473 15.8803 11.8764 14.689H11.9419Z" fill="url(#paint14_linear_93_956)"/>
<path d="M30.4842 34.9761C25.5954 30.9551 21.7788 34.5572 21.7788 34.5572C21.7788 34.5572 18.1289 32.4295 13.8812 34.3185C9.63351 36.2076 8.1416 39.6777 8.1416 39.6777L25.1181 61.4367C28.6911 61.5653 33.7843 57.1681 33.7043 52.3583C33.6242 47.5485 35.3733 38.9971 30.4842 34.9761Z" fill="url(#paint15_linear_93_956)"/>
<path d="M8.14163 39.6771C8.14163 39.6771 3.1473 41.8992 2.80846 45.1995C2.46962 48.4999 3.59087 51.002 6.34853 54.1346C9.10619 57.2671 11.2397 59.4969 15.646 62.9126C17.9039 64.6638 19.4862 64.9878 22.3942 64.0511C25.1147 62.6446 25.1182 61.4361 25.1182 61.4361C25.1182 61.4361 20.717 43.513 16.6373 41.1069C12.2385 38.5113 8.14163 39.6771 8.14163 39.6771Z" fill="url(#paint16_linear_93_956)"/>
<path d="M12.4914 39.0642C15.9806 38.7195 17.6114 35.8794 17.6639 37.0083C17.7135 38.0755 17.0515 37.6415 18.1754 38.7007C19.4634 39.9147 16.3258 39.5252 14.7236 40.9914C13.1214 42.4576 10.3401 39.2765 12.4914 39.0642Z" fill="url(#paint17_linear_93_956)"/>
<path d="M14.8121 38.9017C14.8121 38.9017 11.9839 35.0348 10.4766 34.9984C8.96929 34.9621 12.8928 33.0012 13.1279 33.3546C13.3631 33.708 15.8588 38.4409 15.8588 38.4409C15.8588 38.4409 15.6236 38.9084 14.8121 38.9017Z" fill="url(#paint18_linear_93_956)"/>
<path d="M75.1313 36.8354C72.9688 32.8123 69.4346 34.1716 69.4346 34.1716C69.4346 34.1716 67.5811 31.7517 64.2284 31.8493C60.8758 31.9469 58.9292 33.8548 58.9292 33.8548L64.3032 53.0277C66.6531 54.0919 71.2574 52.5505 72.5208 49.3187C73.7841 46.087 77.2937 40.858 75.1313 36.8354Z" fill="url(#paint19_linear_93_956)"/>
<path d="M58.9293 33.8547C58.9293 33.8547 54.987 33.9703 53.857 36.0819C52.727 38.1934 52.7901 40.1697 53.7735 43.0157C54.7569 45.8616 55.57 47.9342 57.5758 51.4217C58.6034 53.2093 59.5709 53.8586 61.7686 54.0299C63.9692 53.8358 64.3033 53.03 64.3033 53.03C64.3033 53.03 66.273 39.8611 64.2089 37.1371C61.9834 34.1986 58.9293 33.8547 58.9293 33.8547Z" fill="url(#paint20_linear_93_956)"/>
<path d="M62.0006 34.637C64.424 35.363 66.2905 33.9132 66.0164 34.681C65.7573 35.4072 65.4331 34.9361 65.8944 35.951C66.4218 37.1142 64.4338 35.9948 62.9628 36.5343C61.4918 37.0739 60.5061 34.1895 62.0006 34.637Z" fill="url(#paint21_linear_93_956)"/>
<path d="M63.398 35.1228C63.398 35.1228 62.3557 30.3239 61.1226 29.6955C59.8895 29.0672 63.7909 28.7463 63.8657 29.1767C63.9404 29.607 64.4174 35.0976 64.4174 35.0976C64.4174 35.0976 64.0672 35.4492 63.398 35.1228Z" fill="url(#paint22_linear_93_956)"/>
<path d="M62.0676 47.366C62.0676 47.366 68.3081 44.9294 69.6065 44.3965C70.9048 43.8636 72.9874 45.2584 70.3311 46.793C67.6747 48.3276 62.8752 48.6556 62.8752 48.6556L62.0676 47.366Z" fill="url(#paint23_linear_93_956)"/>
<path d="M62.901 48.3947C62.901 48.3947 68.4394 46.9582 69.9737 46.6482C71.508 46.3383 73.4592 48.2655 70.4942 49.5517C67.5292 50.8379 62.8289 49.3826 62.8289 49.3826L62.901 48.3947Z" fill="url(#paint24_linear_93_956)"/>
<path d="M61.9766 46.7634C61.9766 46.7634 66.9876 42.5212 68.6471 42.1802C70.3065 41.8393 71.2016 43.4365 69.0095 45.2744C66.8174 47.1123 62.6235 48.0318 62.6235 48.0318L61.9766 46.7634Z" fill="url(#paint25_linear_93_956)"/>
<path d="M29.8397 55.504C29.3494 55.7066 29.4756 56.3919 29.9987 56.3691C36.8922 56.0709 55.8019 55.2556 58.8406 55.1469C62.5694 55.0143 64.8021 51.3509 63.56 47.8331C62.3178 44.3153 59.3247 43.9799 54.6029 45.5795C50.8232 46.8604 35.7134 53.0764 29.8397 55.504Z" fill="url(#paint26_linear_93_956)"/>
<path d="M57.2906 45.4354C56.7696 45.652 56.6688 45.6974 57.3001 46.8356C57.9314 47.9738 58.5306 49.3334 59.1311 49.0776C59.7316 48.8217 58.0194 45.1321 57.2906 45.4354Z" fill="url(#paint27_linear_93_956)"/>
<path d="M55.87 49.1178C56.2558 49.7276 56.9835 51.0896 56.8133 52.4537C56.7709 52.7947 56.4647 53.0635 56.1073 53.0752C55.778 53.0858 55.4999 52.8742 55.4418 52.568C55.3137 51.8948 55.0489 50.7049 54.6329 49.7772C54.4473 49.3647 54.7572 48.8779 55.2371 48.8275C55.4948 48.8004 55.7398 48.9118 55.87 49.1178Z" fill="url(#paint28_linear_93_956)"/>
<path d="M51.1752 47.6821L51.2988 47.6402C51.3749 47.6128 51.4574 47.6083 51.5361 47.6271C51.6148 47.646 51.6863 47.6874 51.7418 47.7463C52.3652 48.4356 52.6876 49.3413 52.6526 50.506C52.6474 50.6015 52.6111 50.6925 52.5492 50.7653C52.4872 50.8381 52.4031 50.8885 52.3097 50.9088L52.2962 50.912C52.0385 50.9708 51.806 50.794 51.8047 50.5445C51.7999 49.6619 51.4998 48.9335 50.9695 48.325C50.785 48.1135 50.8902 47.7781 51.1752 47.6821Z" fill="url(#paint29_linear_93_956)"/>
<path d="M49.6915 51.4897L49.7975 51.4804C49.8637 51.4733 49.9304 51.4863 49.989 51.5178C50.0476 51.5492 50.0952 51.5977 50.1258 51.6567C50.4681 52.3461 50.5235 53.1529 50.2379 54.0989C50.2136 54.1753 50.1654 54.2418 50.1004 54.2887C50.0353 54.3356 49.957 54.3603 49.8768 54.3593H49.8654C49.8164 54.36 49.7679 54.3493 49.7237 54.3281C49.6795 54.3068 49.6409 54.2755 49.6109 54.2367C49.581 54.1979 49.5605 54.1526 49.5511 54.1045C49.5417 54.0563 49.5436 54.0067 49.5568 53.9594C49.7482 53.2361 49.6711 52.5807 49.385 51.9746C49.2864 51.7633 49.4441 51.5107 49.6915 51.4897Z" fill="url(#paint30_linear_93_956)"/>
<path d="M46.9611 49.5013L47.0231 49.4626C47.0617 49.4379 47.1065 49.4245 47.1524 49.4241C47.1983 49.4237 47.2433 49.4362 47.2824 49.4602C47.726 49.7455 48.0354 50.187 48.1857 50.814C48.1967 50.8658 48.1898 50.9198 48.1661 50.9672C48.1425 51.0145 48.1035 51.0525 48.0555 51.0749L48.0486 51.0784C47.9161 51.1441 47.7615 51.0805 47.7244 50.9458C47.5934 50.4749 47.3219 50.1257 46.9414 49.8709C46.8089 49.7824 46.8181 49.5894 46.9611 49.5013Z" fill="url(#paint31_linear_93_956)"/>
<path d="M45.1786 51.5429L45.2934 51.5299C45.3641 51.5202 45.436 51.5321 45.4998 51.5639C45.5636 51.5958 45.6163 51.6461 45.6511 51.7083C46.0411 52.4348 46.1284 53.2954 45.8524 54.3151C45.8287 54.3976 45.779 54.4703 45.7108 54.5224C45.6425 54.5745 45.5593 54.6033 45.4735 54.6044H45.4613C45.228 54.607 45.0657 54.4066 45.1166 54.1863C45.2982 53.4076 45.1938 52.7081 44.8668 52.0702C44.752 51.8472 44.9135 51.5723 45.1786 51.5429Z" fill="url(#paint32_linear_93_956)"/>
<path d="M41.9954 51.7571C42.1882 52.0622 42.5522 52.7428 42.4671 53.425C42.454 53.5099 42.4115 53.5876 42.347 53.6443C42.2825 53.7011 42.2001 53.7335 42.1142 53.7358C41.9496 53.7411 41.8106 53.6353 41.7815 53.4823C41.7176 53.1456 41.585 52.5506 41.3771 52.0869C41.2849 51.8806 41.4394 51.6362 41.6791 51.612C41.7401 51.6042 41.8021 51.6137 41.858 51.6393C41.9139 51.665 41.9615 51.7057 41.9954 51.7571Z" fill="url(#paint33_linear_93_956)"/>
<path d="M37.7833 53.3754C37.976 53.6806 38.3401 54.3615 38.255 55.0434C38.2419 55.1283 38.1994 55.206 38.1349 55.2628C38.0704 55.3196 37.988 55.3519 37.9021 55.3541C37.7372 55.3597 37.5982 55.2537 37.5693 55.1007C37.5052 54.7642 37.3729 54.1693 37.1647 53.7053C37.0725 53.499 37.227 53.2545 37.4667 53.2304C37.5278 53.2227 37.5898 53.2321 37.6457 53.2578C37.7016 53.2834 37.7493 53.3241 37.7833 53.3754Z" fill="url(#paint34_linear_93_956)"/>
<path d="M40.0983 53.8902C40.2073 54.0626 40.4125 54.447 40.3634 54.8317C40.3559 54.8796 40.3319 54.9234 40.2955 54.9554C40.259 54.9875 40.2125 55.0057 40.1641 55.007C40.1208 55.0097 40.078 54.9968 40.0435 54.9705C40.009 54.9443 39.9852 54.9065 39.9763 54.8641C39.9403 54.674 39.8655 54.338 39.7481 54.0763C39.695 53.96 39.7831 53.8226 39.9185 53.8083C39.9532 53.8036 39.9884 53.8089 40.0202 53.8234C40.052 53.8378 40.0791 53.861 40.0983 53.8902Z" fill="url(#paint35_linear_93_956)"/>
<path d="M62.384 53.3793C62.384 53.3793 68.0314 51.8214 69.2078 51.4751C70.3842 51.1288 72.0447 52.5441 69.5914 53.6431C67.1382 54.7421 62.9517 54.5854 62.9517 54.5854L62.384 53.3793Z" fill="url(#paint36_linear_93_956)"/>
<path d="M63.0009 54.3583C63.0009 54.3583 67.9385 53.6119 69.2976 53.4834C70.6567 53.3548 72.1486 55.2253 69.4529 56.0772C66.7573 56.929 62.8384 55.2187 62.8384 55.2187L63.0009 54.3583Z" fill="url(#paint37_linear_93_956)"/>
<path d="M62.3667 52.842C62.3667 52.842 67.1325 49.5869 68.6029 49.4422C70.0734 49.2974 70.6856 50.7801 68.6029 52.1882C66.5203 53.5963 62.7981 54.0147 62.7981 54.0147L62.3667 52.842Z" fill="url(#paint38_linear_93_956)"/>
<path d="M33.6754 57.528C33.2305 57.6606 33.2703 58.2728 33.7255 58.3014C39.721 58.6784 56.163 59.7148 58.803 59.9012C62.0426 60.13 64.3461 57.1258 63.6284 53.9272C62.9107 50.7287 60.3551 50.1573 56.1076 51.1221C52.7083 51.8945 39.0038 55.9441 33.6754 57.528Z" fill="url(#paint39_linear_93_956)"/>
<path d="M58.447 51.2447C57.9745 51.3863 57.8825 51.4168 58.3144 52.4731C58.7463 53.5294 59.1255 54.7765 59.6711 54.6079C60.2168 54.4393 59.1085 51.0464 58.447 51.2447Z" fill="url(#paint40_linear_93_956)"/>
<path d="M56.8448 54.3412C57.1163 54.912 57.6076 56.173 57.3221 57.3528C57.251 57.6477 56.9586 57.8553 56.6481 57.8325C56.362 57.8113 56.1443 57.5999 56.1236 57.3263C56.0812 56.7242 55.9728 55.656 55.7071 54.8049C55.5889 54.4263 55.906 54.0281 56.3259 54.0283C56.5532 54.0283 56.7531 54.1487 56.8448 54.3412Z" fill="url(#paint41_linear_93_956)"/>
<path d="M52.9283 52.6474L53.0394 52.6208C53.1077 52.6037 53.1795 52.6071 53.2459 52.6307C53.3122 52.6543 53.3701 52.697 53.4122 52.7534C53.8815 53.4162 54.0684 54.2382 53.9199 55.2571C53.9061 55.34 53.8657 55.4162 53.8048 55.4741C53.744 55.5321 53.6659 55.5687 53.5824 55.5784L53.5705 55.5797C53.3417 55.6063 53.1585 55.431 53.1826 55.2123C53.268 54.4381 53.0821 53.7718 52.6852 53.1893C52.5471 52.9894 52.6722 52.7057 52.9283 52.6474Z" fill="url(#paint42_linear_93_956)"/>
<path d="M51.2584 55.8477L51.3522 55.8496C51.4101 55.8497 51.4665 55.8676 51.5139 55.9008C51.5613 55.9339 51.5974 55.9808 51.6174 56.0352C51.8435 56.6715 51.8096 57.3836 51.4668 58.1865C51.4385 58.2509 51.3903 58.3045 51.3292 58.3395C51.2682 58.3746 51.1976 58.3891 51.1277 58.3811H51.1179C51.0752 58.3768 51.034 58.3626 50.9978 58.3395C50.9616 58.3165 50.9313 58.2853 50.9093 58.2485C50.8872 58.2116 50.8742 58.1701 50.8711 58.1273C50.868 58.0845 50.875 58.0416 50.8914 58.0019C51.1301 57.3858 51.1301 56.803 50.9445 56.2462C50.8792 56.0503 51.0423 55.8437 51.2584 55.8477Z" fill="url(#paint43_linear_93_956)"/>
<path d="M49.0976 53.8506L49.1557 53.8228C49.1914 53.8047 49.2315 53.7971 49.2714 53.8011C49.3112 53.805 49.3491 53.8203 49.3805 53.8451C49.7353 54.1367 49.9583 54.5517 50.0246 55.1153C50.0288 55.1617 50.0174 55.2083 49.9923 55.2475C49.9671 55.2867 49.9296 55.3164 49.8856 55.3319L49.879 55.3343C49.7573 55.3794 49.6306 55.3094 49.612 55.1893C49.555 54.7922 49.3524 54.4305 49.0436 54.1744C48.9375 54.084 48.9651 53.9159 49.0976 53.8506Z" fill="url(#paint44_linear_93_956)"/>
<path d="M47.3476 55.4755H47.4481C47.5103 55.4735 47.5716 55.4907 47.6238 55.5246C47.6759 55.5586 47.7164 55.6077 47.7398 55.6653C48.0033 56.3382 47.9906 57.1005 47.6494 57.9691C47.6211 58.0389 47.5711 58.0979 47.5068 58.1372C47.4425 58.1765 47.3673 58.1942 47.2922 58.1876H47.2816C47.2358 58.1843 47.1915 58.1705 47.152 58.1471C47.1125 58.1237 47.079 58.0913 47.0542 58.0527C47.0294 58.0141 47.014 57.9702 47.0092 57.9246C47.0043 57.879 47.0102 57.8328 47.0263 57.7899C47.2623 57.1241 47.2429 56.5013 47.0247 55.9116C46.9486 55.7038 47.1157 55.4776 47.3476 55.4755Z" fill="url(#paint45_linear_93_956)"/>
<path d="M44.5727 55.3697C44.7087 55.655 44.9542 56.2855 44.8113 56.8754C44.7916 56.9482 44.7472 57.0118 44.6857 57.0554C44.6242 57.0989 44.5495 57.1197 44.4743 57.1141C44.4073 57.111 44.3437 57.0837 44.2955 57.0371C44.2473 56.9905 44.2177 56.9279 44.2124 56.8611C44.1911 56.5602 44.1368 56.0262 44.004 55.6004C43.9448 55.4111 44.1034 55.212 44.3134 55.212C44.3671 55.2109 44.4201 55.2251 44.466 55.2531C44.5119 55.281 44.549 55.3215 44.5727 55.3697Z" fill="url(#paint46_linear_93_956)"/>
<path d="M40.7643 56.398C40.9 56.6836 41.1455 57.3141 41.0029 57.904C40.9832 57.9767 40.9388 58.0403 40.8773 58.0839C40.8158 58.1274 40.741 58.1482 40.6659 58.1426C40.5989 58.1396 40.5353 58.1122 40.487 58.0657C40.4387 58.0191 40.4091 57.9565 40.4037 57.8897C40.3825 57.5885 40.3281 57.0548 40.1953 56.629C40.1364 56.4397 40.2947 56.2405 40.5049 56.2405C40.5587 56.2395 40.6116 56.2537 40.6575 56.2816C40.7034 56.3095 40.7404 56.3499 40.7643 56.398Z" fill="url(#paint47_linear_93_956)"/>
<path d="M42.7149 57.0634C42.7915 57.2246 42.9301 57.5804 42.8495 57.9135C42.8386 57.9547 42.8137 57.9907 42.7789 58.0154C42.7442 58.0401 42.7019 58.0519 42.6594 58.0487C42.6216 58.047 42.5857 58.0316 42.5585 58.0054C42.5312 57.9791 42.5145 57.9438 42.5115 57.906C42.4993 57.7361 42.4688 57.4346 42.3938 57.1944C42.3604 57.0884 42.45 56.9751 42.5685 56.9751C42.5988 56.9744 42.6286 56.9823 42.6545 56.998C42.6805 57.0136 42.7014 57.0363 42.7149 57.0634Z" fill="url(#paint48_linear_93_956)"/>
<path d="M46.9667 59.3112C48.1725 59.4546 49.3945 59.4538 50.599 59.2791C51.197 59.1926 51.7896 59.072 52.3738 58.918C52.6443 58.8467 52.9129 58.7677 53.1799 58.6834C53.4816 58.5882 53.8353 58.5187 54.0604 58.2878C54.2725 58.0714 54.2128 57.6353 53.8557 57.6149C53.3254 57.5846 52.7421 57.9378 52.2357 58.0921C51.6795 58.2602 51.1143 58.3972 50.5428 58.5023C49.38 58.7203 48.1997 58.8321 47.0165 58.8363C46.7148 58.8363 46.6549 59.2749 46.967 59.312L46.9667 59.3112Z" fill="url(#paint49_linear_93_956)"/>
<path d="M44.3421 57.265C45.1725 58.2195 46.258 58.9984 47.2896 59.7207C48.3828 60.4861 49.5433 61.1579 50.7245 61.7773C51.9051 62.3933 53.1189 62.9437 54.3602 63.4259C54.9743 63.6661 55.5943 63.8907 56.2202 64.0996C56.5304 64.2034 56.8417 64.3031 57.1542 64.3987C57.4676 64.4947 57.8035 64.636 58.1352 64.6272C58.4547 64.619 58.7156 64.1956 58.3799 63.9808C57.8664 63.6526 57.1481 63.5587 56.5675 63.3729C55.9396 63.1715 55.3169 62.9548 54.6993 62.7225C53.4959 62.2691 52.3163 61.7545 51.1622 61.1874C49.9956 60.6139 48.8712 59.9678 47.7685 59.2763C46.6594 58.5806 45.6426 57.7549 44.5468 57.0439C44.4063 56.9526 44.2239 57.1298 44.3413 57.265H44.3421Z" fill="url(#paint50_linear_93_956)"/>
<path d="M44.3399 57.1135C44.3375 57.3277 44.5143 57.5591 44.6185 57.7363C44.8929 58.2032 45.1517 58.6751 45.4524 59.1266C45.8172 59.6762 46.2182 60.2009 46.6526 60.6973C46.9973 61.0886 47.5125 61.7856 48.06 61.8607C48.3678 61.9028 48.6568 61.5375 48.4945 61.2509C48.3519 61.0001 48.0968 60.8662 47.8789 60.6853C47.6553 60.4966 47.4418 60.2961 47.2394 60.0848C46.7886 59.6235 46.3748 59.1346 45.9543 58.6473C45.6213 58.2615 45.2745 57.8847 44.9584 57.4849C44.8365 57.3306 44.6965 57.0896 44.5096 57.0077C44.4401 56.9774 44.3409 57.0326 44.3399 57.1121V57.1135Z" fill="url(#paint51_linear_93_956)"/>
<path d="M58.9799 62.2866C58.5236 62.3927 56.8933 61.0771 56.1329 60.5765C56.3981 60.7979 57.3565 62.0181 57.1818 62.3662C57.0071 62.7143 56.5267 62.2259 56.252 62.3728C55.9773 62.5197 56.6497 63.2494 56.191 63.238C55.7323 63.2266 55.596 62.722 55.3235 62.644C55.0509 62.5661 55.4473 63.3024 54.9661 63.2398C54.4849 63.1772 54.5002 62.0154 54.2208 62.1445C53.9413 62.2737 54.2545 62.8339 53.8891 62.7101C53.5237 62.5862 52.1739 58.0689 52.4393 57.9907C53.0725 57.8077 53.7032 56.8053 54.0259 56.2305C54.3486 55.6556 54.5108 55.0066 54.6511 54.3626C54.6874 54.1948 54.7484 53.9978 54.913 53.9498C55.0618 53.9063 55.2195 54.0219 55.2787 54.1651C55.3378 54.3082 55.2256 54.5763 55.4574 54.4896C55.6891 54.4029 55.8598 54.1449 56.1353 53.9063C56.1857 53.8625 56.2414 53.8164 56.3077 53.8111C56.4962 53.7963 56.5402 54.0831 56.4551 54.252C56.37 54.4209 56.1647 54.7118 56.2366 54.8868C56.4036 54.9427 56.7199 54.6874 56.8695 54.5951C57.019 54.5028 57.2672 54.5312 57.3732 54.6712C57.5713 54.9308 56.9342 55.7519 57.0874 55.9595C57.2407 56.1671 57.9242 55.4292 57.9799 56.1546C58.04 56.9397 57.4525 57.0579 55.6318 57.8308C55.5833 57.8536 55.534 57.873 55.4847 57.8915C56.6221 57.882 57.2855 57.9504 58.4046 57.8761C58.5931 57.8637 59.3204 57.8255 59.4813 58.2285C59.6422 58.6315 58.6859 58.4671 58.9213 58.6697C59.266 58.969 59.9848 58.6861 60.1471 59.1146C60.3093 59.543 59.6152 59.4473 59.7006 59.6284C59.7859 59.8095 60.5405 59.9505 60.6529 60.3249C60.7654 60.6993 59.9835 60.6913 59.8207 60.8902C59.6579 61.089 60.3205 61.356 60.3563 61.4793C60.4228 61.7068 60.2709 61.8282 60.0381 61.872C59.8053 61.9157 59.4331 61.7174 59.1128 61.7023C58.7925 61.6872 59.4362 62.1817 58.9799 62.2866Z" fill="url(#paint52_linear_93_956)"/>
<path d="M53.0715 64.6669C53.0116 64.2024 51.2132 63.1291 50.4798 62.5901C50.78 62.7627 52.2562 63.2376 52.5214 62.9528C52.7865 62.6681 52.1624 62.387 52.2048 62.0779C52.2472 61.7687 53.1651 62.1474 52.9949 61.7205C52.8247 61.2936 52.3056 61.3416 52.1369 61.1131C51.9683 60.8845 52.7977 61.0007 52.572 60.5711C52.3464 60.1416 51.2617 60.5589 51.2861 60.253C51.3105 59.947 51.9442 60.0451 51.7013 59.7452C51.4585 59.4454 49.6309 60.0714 48.2312 60.3049C47.2208 60.4736 46.3252 60.0398 46.3453 60.315C46.3933 60.9726 46.1001 61.6195 45.673 62.1216C45.2458 62.6238 44.6936 63.0011 44.1381 63.3558C43.9933 63.4484 43.8297 63.5738 43.8417 63.7448C43.8528 63.8996 44.0159 64.0075 44.1707 64.0131C44.3256 64.0187 44.5379 63.8204 44.5371 64.068C44.5363 64.3156 44.3539 64.5649 44.2248 64.9063C44.2012 64.9689 44.1773 65.0368 44.1954 65.101C44.2468 65.2831 44.5313 65.225 44.6601 65.0864C44.789 64.9477 44.9905 64.6547 45.1796 64.6622C45.2898 64.7992 45.1602 65.1845 45.1265 65.3568C45.0929 65.5291 45.2045 65.7513 45.3726 65.803C45.6849 65.8987 46.234 65.0164 46.4816 65.0872C46.7293 65.158 46.2751 66.0557 46.9742 65.8561C47.7315 65.6402 47.6387 65.0482 47.7317 63.0721C47.7362 63.0191 47.7373 62.9661 47.7378 62.9131C48.1233 63.9832 48.4176 64.5816 48.7363 65.6569C48.7894 65.838 49.0065 66.5335 49.4405 66.5446C49.8745 66.5557 49.3875 65.7166 49.6598 65.8661C50.0604 66.0859 50.0442 66.858 50.5024 66.8614C50.9605 66.8649 50.6299 66.2474 50.8293 66.2644C51.0287 66.2813 51.4229 66.9405 51.8132 66.9158C52.2035 66.8911 51.9243 66.161 52.0545 65.9393C52.1847 65.7177 52.6643 66.2461 52.7929 66.2373C53.0294 66.2206 53.0904 66.0361 53.0506 65.8022C53.0108 65.5684 52.6956 65.2884 52.5704 64.9933C52.4453 64.6982 53.1325 65.1325 53.0715 64.6669Z" fill="url(#paint53_linear_93_956)"/>
<path d="M58.2351 71.1067C57.8109 70.9102 57.3265 68.8727 57.0317 68.011C57.1065 68.349 57.1163 69.9003 56.765 70.0684C56.4137 70.2365 56.3331 69.5562 56.0258 69.5042C55.7185 69.4523 55.8039 70.4409 55.4478 70.1506C55.0917 69.8603 55.2935 69.3783 55.1259 69.15C54.9583 68.9217 54.8205 69.7463 54.4784 69.4021C54.1364 69.058 54.86 68.1489 54.5601 68.0797C54.2602 68.0105 54.1643 68.6455 53.9503 68.3236C53.7363 68.0017 54.8828 66.4464 55.5255 65.1815C55.9894 64.2681 55.8436 63.2836 56.1011 63.3855C56.7135 63.6286 57.4188 63.5429 58.0259 63.2863C58.6331 63.0296 59.1589 62.6158 59.6639 62.1923C59.7965 62.0821 59.9643 61.9635 60.124 62.0266C60.2682 62.0834 60.3223 62.2714 60.2812 62.4206C60.2401 62.5699 59.9871 62.7123 60.2236 62.7868C60.4601 62.8613 60.7539 62.7603 61.1171 62.7404C61.1837 62.7367 61.2555 62.7343 61.3115 62.7709C61.4706 62.8745 61.329 63.1283 61.1582 63.2097C60.9875 63.2911 60.6471 63.3953 60.5967 63.5777C60.6943 63.724 61.1004 63.7161 61.2757 63.7344C61.4509 63.7527 61.6286 63.9269 61.6275 64.1029C61.6251 64.4296 60.6187 64.6883 60.6126 64.9463C60.6065 65.2043 61.5986 65.0399 61.1985 65.647C60.7653 66.3046 60.2284 66.0381 58.316 65.5341C58.263 65.5224 58.2129 65.5076 58.1625 65.4922C59.0674 66.1816 59.5497 66.6416 60.48 67.2686C60.6367 67.3747 61.2351 67.7893 61.1164 68.2067C60.9976 68.624 60.3424 67.9076 60.4031 68.2125C60.4928 68.6606 61.2341 68.8767 61.0999 69.3149C60.9658 69.7532 60.4758 69.2521 60.4323 69.4475C60.3888 69.6429 60.8989 70.2164 60.7584 70.5815C60.6179 70.9466 60.0049 70.4611 59.7546 70.5186C59.5043 70.5762 59.8641 71.1929 59.8172 71.3124C59.7302 71.533 59.5359 71.5359 59.3248 71.4278C59.1138 71.3196 58.9412 70.9349 58.6973 70.727C58.4533 70.5192 58.6601 71.3032 58.2351 71.1067Z" fill="url(#paint54_linear_93_956)"/>
<g style="mix-blend-mode:soft-light">
<path d="M50.1909 64.1369C50.174 64.1368 50.1574 64.1321 50.143 64.1231C50.1287 64.1141 50.1172 64.1012 50.1098 64.086C50.1042 64.0738 49.5095 62.8687 47.2535 61.0428C47.2443 61.0353 47.2367 61.0262 47.2311 61.0158C47.2255 61.0055 47.2219 60.9941 47.2207 60.9824C47.2182 60.9587 47.2252 60.9351 47.2402 60.9166C47.2552 60.8981 47.2769 60.8863 47.3006 60.8838C47.3242 60.8813 47.3479 60.8883 47.3664 60.9033C49.6598 62.7592 50.2479 63.9584 50.272 64.0086C50.2821 64.0301 50.2834 64.0547 50.2754 64.0771C50.2675 64.0995 50.251 64.1178 50.2296 64.1281C50.2175 64.1338 50.2043 64.1368 50.1909 64.1369Z" fill="white"/>
<path d="M46.3435 63.3392C46.3266 63.3392 46.3101 63.3345 46.2958 63.3255C46.2815 63.3166 46.27 63.3037 46.2627 63.2886C46.2553 63.2734 46.2524 63.2564 46.2542 63.2396C46.256 63.2229 46.2625 63.2069 46.273 63.1937C46.8282 62.4927 47.219 60.9666 47.223 60.9507C47.2259 60.9392 47.231 60.9285 47.2381 60.9191C47.2451 60.9096 47.254 60.9017 47.2641 60.8956C47.2742 60.8896 47.2854 60.8857 47.2971 60.884C47.3088 60.8823 47.3206 60.8829 47.3321 60.8858C47.3435 60.8887 47.3542 60.8939 47.3637 60.9009C47.3731 60.908 47.3811 60.9168 47.3871 60.927C47.3931 60.9371 47.3971 60.9483 47.3987 60.96C47.4004 60.9716 47.3998 60.9835 47.3969 60.9949C47.3807 61.0588 46.9926 62.5741 46.4138 63.3053C46.4054 63.3159 46.3947 63.3245 46.3825 63.3303C46.3704 63.3362 46.357 63.3393 46.3435 63.3392Z" fill="white"/>
<path d="M49.224 61.2791C48.2849 61.2791 47.3415 61.0715 47.2904 61.0603C47.2784 61.0583 47.2669 61.0538 47.2567 61.0472C47.2464 61.0406 47.2376 61.032 47.2309 61.0218C47.2241 61.0117 47.2194 61.0003 47.2171 60.9884C47.2149 60.9764 47.2151 60.9641 47.2177 60.9522C47.2204 60.9403 47.2254 60.9291 47.2325 60.9192C47.2396 60.9093 47.2487 60.901 47.2591 60.8947C47.2696 60.8884 47.2812 60.8843 47.2932 60.8827C47.3053 60.881 47.3176 60.8818 47.3293 60.8851C47.3445 60.8883 48.8406 61.2175 49.9086 61.0526C49.9316 61.0502 49.9548 61.0567 49.9731 61.0709C49.9915 61.0851 50.0036 61.1058 50.007 61.1287C50.0105 61.1517 50.0049 61.1751 49.9915 61.194C49.9781 61.2129 49.9579 61.2259 49.9351 61.2303C49.6996 61.2644 49.4619 61.2807 49.224 61.2791Z" fill="white"/>
<path d="M58.5193 68.4227C58.5071 68.4227 58.4951 68.4203 58.4839 68.4155C58.4726 68.4107 58.4625 68.4037 58.4541 68.3948C58.4159 68.3545 57.5065 67.3767 56.5929 64.5713C56.5886 64.56 56.5867 64.5479 56.5873 64.5358C56.5878 64.5236 56.5908 64.5118 56.5961 64.5008C56.6013 64.4899 56.6087 64.4802 56.6179 64.4722C56.627 64.4642 56.6376 64.4581 56.6492 64.4544C56.6607 64.4506 56.6729 64.4492 56.685 64.4503C56.697 64.4514 56.7088 64.4549 56.7195 64.4606C56.7302 64.4663 56.7396 64.4742 56.7472 64.4836C56.7548 64.4931 56.7603 64.504 56.7636 64.5157C57.6651 67.2826 58.5753 68.2615 58.5843 68.271C58.5965 68.2837 58.6046 68.2997 58.6078 68.317C58.6109 68.3343 58.6089 68.3522 58.602 68.3684C58.5951 68.3845 58.5835 68.3983 58.5688 68.408C58.5541 68.4176 58.5369 68.4227 58.5193 68.4227Z" fill="white"/>
<path d="M57.8195 64.6964C57.4346 64.6957 57.0501 64.6743 56.6675 64.6325C56.6558 64.6311 56.6445 64.6274 56.6342 64.6217C56.6239 64.6159 56.6149 64.6082 56.6076 64.5989C56.6003 64.5896 56.5949 64.579 56.5917 64.5677C56.5885 64.5564 56.5876 64.5445 56.589 64.5328C56.5904 64.5211 56.5941 64.5098 56.5998 64.4995C56.6056 64.4892 56.6133 64.4802 56.6226 64.4729C56.6319 64.4656 56.6425 64.4602 56.6538 64.457C56.6651 64.4539 56.677 64.4529 56.6887 64.4543C56.7043 64.4562 58.2702 64.6365 59.1229 64.3689C59.1344 64.3645 59.1467 64.3624 59.159 64.3629C59.1714 64.3633 59.1835 64.3664 59.1946 64.3717C59.2057 64.3771 59.2156 64.3847 59.2237 64.394C59.2317 64.4034 59.2378 64.4143 59.2414 64.4261C59.2451 64.4379 59.2463 64.4503 59.2449 64.4626C59.2435 64.4748 59.2397 64.4867 59.2335 64.4974C59.2274 64.5081 59.2191 64.5175 59.2092 64.5248C59.1993 64.5322 59.1879 64.5374 59.1759 64.5402C58.7907 64.6614 58.2798 64.6964 57.8195 64.6964Z" fill="white"/>
<path d="M55.9021 67.1328C55.8863 67.1328 55.8709 67.1287 55.8573 67.1209C55.8436 67.1131 55.8323 67.1018 55.8244 67.0882C55.8165 67.0746 55.8123 67.0592 55.8123 67.0435C55.8122 67.0277 55.8163 67.0123 55.8241 66.9986C56.3599 66.0593 56.5874 64.5451 56.5895 64.53C56.5939 64.5072 56.6069 64.487 56.6258 64.4736C56.6448 64.4602 56.6681 64.4546 56.6911 64.458C56.714 64.4614 56.7348 64.4736 56.7489 64.492C56.7631 64.5103 56.7697 64.5334 56.7672 64.5565C56.7579 64.6199 56.5325 66.1208 55.9803 67.088C55.9723 67.1017 55.9609 67.113 55.9472 67.1209C55.9335 67.1288 55.9179 67.1329 55.9021 67.1328Z" fill="white"/>
<path d="M58.0134 59.8253C57.991 59.8252 57.9693 59.8168 57.9527 59.8017C57.9339 59.7844 56.0453 58.087 53.2148 58.6279C53.192 58.631 53.1689 58.6252 53.1502 58.6118C53.1315 58.5984 53.1187 58.5783 53.1144 58.5557C53.1101 58.5331 53.1146 58.5097 53.127 58.4904C53.1394 58.471 53.1588 58.4571 53.1811 58.4516C56.1029 57.893 58.0548 59.6516 58.0741 59.6694C58.0874 59.6816 58.0967 59.6976 58.1007 59.7152C58.1048 59.7328 58.1035 59.7512 58.0969 59.768C58.0904 59.7848 58.0789 59.7993 58.064 59.8095C58.0491 59.8197 58.0315 59.8252 58.0134 59.8253Z" fill="white"/>
<path d="M54.3133 60.8373C54.2926 60.8373 54.2725 60.8301 54.2564 60.8169C54.2404 60.8038 54.2294 60.7855 54.2253 60.7652C54.0481 59.8903 53.1342 58.6049 53.1249 58.5911C53.1123 58.5717 53.1076 58.5482 53.1119 58.5254C53.1162 58.5026 53.1291 58.4824 53.148 58.4689C53.1668 58.4554 53.1901 58.4498 53.2131 58.4531C53.236 58.4564 53.2568 58.4684 53.271 58.4867C53.3095 58.5397 54.2165 59.815 54.4013 60.7289C54.4037 60.7405 54.4038 60.7524 54.4015 60.764C54.3993 60.7756 54.3948 60.7867 54.3883 60.7966C54.3817 60.8064 54.3733 60.8149 54.3635 60.8215C54.3537 60.8281 54.3426 60.8326 54.331 60.835C54.3252 60.8364 54.3193 60.8372 54.3133 60.8373Z" fill="white"/>
<path d="M53.1982 58.6297C53.1794 58.6297 53.1611 58.6238 53.1459 58.6129C53.1306 58.6019 53.1192 58.5865 53.1132 58.5687C53.1071 58.5509 53.1068 58.5317 53.1123 58.5137C53.1177 58.4957 53.1287 58.4799 53.1436 58.4685C53.156 58.4592 54.3727 57.5286 54.9364 56.6065C54.9492 56.5868 54.9691 56.5729 54.992 56.5677C55.0148 56.5625 55.0388 56.5664 55.0588 56.5787C55.0788 56.5909 55.0932 56.6105 55.099 56.6332C55.1048 56.656 55.1014 56.68 55.0897 56.7003C54.508 57.6514 53.3035 58.5727 53.2523 58.6114C53.2368 58.6233 53.2178 58.6298 53.1982 58.6297Z" fill="white"/>
</g>
<path d="M3.76633 47.3954C3.76633 47.3954 3.87981 50.2323 1.25339 54.987C-1.37303 59.7416 0.25277 63.922 4.96527 65.2965C9.67776 66.6709 18.328 64.4494 17.7829 58.3324C17.2378 52.2155 10.6919 53.4474 8.22907 50.7257C5.76624 48.0041 5.41865 46.8264 5.41865 46.8264L3.76633 47.3954Z" fill="url(#paint55_linear_93_956)"/>
<g style="mix-blend-mode:soft-light">
<path d="M2.24738 61.866C2.22726 61.866 2.20775 61.8592 2.19194 61.8467C2.17614 61.8343 2.16494 61.8169 2.16015 61.7974C1.67284 59.7975 2.2153 57.7257 2.87416 55.7849C3.39912 54.2373 4.0259 51.914 4.02961 49.637C4.03009 49.6133 4.03972 49.5908 4.05648 49.574C4.07324 49.5573 4.09583 49.5478 4.11949 49.5474C4.14333 49.5474 4.16619 49.5568 4.18305 49.5737C4.19991 49.5905 4.20938 49.6134 4.20938 49.6372C4.2054 51.9391 3.57305 54.2824 3.04278 55.8414C2.39267 57.7567 1.85684 59.7988 2.33329 61.7539C2.33609 61.7653 2.33661 61.7772 2.33481 61.7889C2.33301 61.8005 2.32892 61.8117 2.32279 61.8218C2.31666 61.8319 2.30859 61.8406 2.29907 61.8476C2.28954 61.8545 2.27873 61.8596 2.26727 61.8623C2.26079 61.8643 2.25412 61.8655 2.24738 61.866Z" fill="white"/>
</g>
<g style="mix-blend-mode:soft-light">
<path d="M9.99754 60.4327C9.97597 60.4327 9.95513 60.4249 9.93894 60.4106C6.97421 57.8529 4.9576 53.9337 4.67497 50.181C4.67355 50.1574 4.68146 50.1342 4.69698 50.1165C4.7125 50.0987 4.73439 50.0877 4.75792 50.0859C4.78146 50.0842 4.80474 50.0917 4.82276 50.107C4.84077 50.1222 4.85206 50.1439 4.8542 50.1674C5.13285 53.8759 7.12613 57.7468 10.0561 60.2749C10.0705 60.2868 10.0807 60.3028 10.0856 60.3207C10.0904 60.3387 10.0896 60.3577 10.0831 60.3752C10.0767 60.3926 10.065 60.4077 10.0497 60.4182C10.0344 60.4287 10.0161 60.4342 9.99754 60.434V60.4327Z" fill="white"/>
</g>
<g style="mix-blend-mode:soft-light">
<path d="M11.0746 55.3958C11.0583 55.3957 11.0424 55.3914 11.0284 55.3831C10.0082 54.7712 8.95295 54.1383 7.99025 53.3299C7.03576 52.5281 6.0264 51.2088 5.41844 49.9699C5.4079 49.9484 5.40629 49.9237 5.41397 49.9011C5.42165 49.8785 5.438 49.8599 5.45941 49.8494C5.48082 49.8388 5.50554 49.8372 5.52814 49.8449C5.55074 49.8526 5.56936 49.8689 5.57991 49.8903C6.17699 51.1099 7.16807 52.4051 8.10505 53.1918C9.05715 53.9911 10.106 54.62 11.1204 55.2285C11.1372 55.2387 11.1502 55.2541 11.1574 55.2723C11.1647 55.2905 11.1657 55.3106 11.1605 55.3295C11.1552 55.3484 11.1439 55.3651 11.1283 55.3769C11.1127 55.3888 11.0936 55.3953 11.074 55.3953L11.0746 55.3958Z" fill="white"/>
</g>
<path d="M39.224 58.6711C39.224 58.6711 38.9912 59.9886 38.8772 61.2925C38.867 61.4135 38.8814 61.5352 38.9195 61.6504C38.9576 61.7657 39.0187 61.872 39.099 61.963C39.1793 62.054 39.2772 62.1277 39.3869 62.1798C39.4965 62.2319 39.6155 62.2613 39.7368 62.2661C41.4734 62.3385 45.1879 62.4782 46.521 62.4196C46.5676 62.4175 46.613 62.4042 46.6534 62.381C46.6938 62.3577 46.7281 62.3251 46.7532 62.2858C46.7784 62.2466 46.7939 62.2019 46.7982 62.1554C46.8025 62.109 46.7957 62.0622 46.7782 62.019C46.716 61.8629 46.5961 61.7367 46.4434 61.6666L40.3076 58.8464L39.224 58.6711Z" fill="url(#paint56_linear_93_956)"/>
<path d="M39.0332 57.8974L39.2188 59.4731C39.2188 59.4731 40.2937 59.9734 41.0278 59.41L40.5826 57.6541L39.0332 57.8974Z" fill="url(#paint57_linear_93_956)"/>
<path d="M39.1739 28.273C39.0944 28.6845 38.7405 48.8074 40.8915 57.8252C40.909 57.8962 40.9006 57.9711 40.8676 58.0364C40.8347 58.1017 40.7795 58.1531 40.712 58.1812C40.3819 58.3162 39.7352 58.5113 38.9602 58.5373C38.8435 58.5411 38.7287 58.506 38.6341 58.4375C38.5394 58.369 38.4701 58.2711 38.4371 58.159C37.8223 56.0668 34.8761 45.5839 34.4917 35.5695C34.0622 24.3809 34.4917 35.1885 34.4917 35.1885L34.7436 28.272L39.1739 28.273Z" fill="url(#paint58_linear_93_956)"/>
<path d="M32.1656 59.3584C32.1656 59.3584 31.7944 60.0236 31.4367 61.7907C31.4211 61.866 31.4215 61.9436 31.4378 62.0187C31.4542 62.0937 31.4861 62.1645 31.5316 62.2264C31.5771 62.2883 31.6351 62.34 31.7018 62.378C31.7686 62.4161 31.8426 62.4396 31.919 62.4472C32.4925 62.5037 33.3751 62.5761 34.0822 62.5713C34.1592 62.571 34.2352 62.5545 34.3054 62.5228C34.3755 62.4912 34.4382 62.445 34.4892 62.3875C34.5403 62.3299 34.5787 62.2622 34.6018 62.1888C34.6249 62.1154 34.6323 62.0379 34.6234 61.9615C34.5438 61.3164 34.301 60.2583 33.5472 59.4334L32.1656 59.3584Z" fill="url(#paint59_linear_93_956)"/>
<path d="M31.8403 57.3318L32.2773 59.7148C32.2773 59.7148 32.7092 60.0359 33.5637 59.8031L33.355 57.2393L31.8403 57.3318Z" fill="url(#paint60_linear_93_956)"/>
<path d="M30.0411 28.4117C28.2816 39.0288 31.0419 55.1314 31.7644 58.1895C31.7858 58.2811 31.8337 58.3643 31.9022 58.4287C31.9707 58.4932 32.0567 58.5359 32.1494 58.5517C32.4718 58.6047 33.0023 58.6484 33.5254 58.4968C33.6134 58.471 33.691 58.4183 33.7473 58.3461C33.8037 58.2739 33.836 58.1858 33.8396 58.0943C33.9364 55.6219 33.7622 40.4446 35.4013 34.4464C35.4843 34.1427 35.67 33.8771 35.9268 33.6948L39.1084 31.4329L39.2476 28.4104L30.0411 28.4117Z" fill="url(#paint61_linear_93_956)"/>
<path d="M42.7909 7.46216C42.832 7.50325 42.1323 7.83335 42.1736 8.12075C42.215 8.40816 42.2147 8.69689 42.5027 8.65579C42.7906 8.6147 43.9856 7.709 43.9856 7.709L42.7909 7.46216Z" fill="url(#paint62_linear_93_956)"/>
<path d="M29.1259 19.6038L28.2616 18.0395C28.2616 18.0395 27.4797 19.8504 24.9689 20.9618C24.9689 20.9618 25.6275 21.1264 26.2036 22.073C26.7798 23.0195 29.661 26.6004 29.661 26.6004L29.4963 27.7935C29.4963 27.7935 25.8428 27.6718 23.1991 26.0648C21.1001 24.7909 20.8943 23.2669 20.8943 23.2669C20.8943 23.2669 19.9064 23.1847 19.7012 22.279C19.496 21.3733 20.0305 20.5092 20.0305 20.5092C20.0305 20.5092 19.3719 14.9944 25.2576 12.7302C25.2576 12.7302 26.122 10.6722 28.4681 10.9193L31.1022 9.56103L36.3705 9.43747L39.3339 10.3429C39.3339 10.3429 40.2393 10.3429 40.6922 10.9193C40.6922 10.9193 45.8989 9.9932 48.3065 14.6235C48.3065 14.6235 47.4289 12.7471 47.4382 10.0065C47.4396 8.94085 47.202 7.88851 46.7428 6.92692L47.5247 6.02148C47.5247 6.02148 50.8587 10.4665 51.8053 12.7294C52.7518 14.9923 52.1764 16.8864 52.1764 16.8864C52.1764 16.8864 52.5882 17.7919 51.8053 18.6562C51.8053 18.6562 51.2702 19.2326 50.3237 18.8622C50.3237 18.8622 48.3479 19.6441 46.6192 19.4383C45.4039 19.2936 43.9443 18.3147 43.1847 17.7463C43.0243 17.6269 42.8404 17.5429 42.6451 17.5C42.4498 17.4571 42.2477 17.4562 42.052 17.4973C41.4263 17.6264 40.4313 17.746 39.5812 17.4628L29.1259 19.6038Z" fill="url(#paint63_linear_93_956)"/>
<path d="M32.4395 5.09546C32.4395 5.13655 30.9373 10.1373 30.9373 10.1373C30.9373 10.1373 34.3946 10.5901 36.5348 9.9726L35.4236 6.30951L32.4395 5.09546Z" fill="url(#paint64_linear_93_956)"/>
<path d="M38.2587 10.0533C38.215 10.9033 38.0024 15.8303 40.226 17.6048L39.2482 29.2485C37.7136 30.0855 33.529 30.3644 29.9022 29.5276C29.9022 29.5276 29.6212 24.3779 29.4155 23.0199C29.2097 21.6619 28.2632 18.0396 28.2632 18.0396C28.2632 18.0396 31.3684 15.6561 29.3651 10.5061C29.3564 10.4838 29.3561 10.4592 29.3642 10.4367C29.3724 10.4142 29.3884 10.3954 29.4094 10.3839L30.1443 9.98301C30.1544 9.97745 30.1656 9.97445 30.1771 9.97427C30.1886 9.97409 30.1999 9.97673 30.2101 9.98197C30.2204 9.98721 30.2291 9.99488 30.2357 10.0043C30.2422 10.0137 30.2464 10.0246 30.2477 10.036C30.3119 10.6724 30.8093 13.9653 34.2314 13.5933C37.5307 13.2349 37.3928 10.5013 37.3027 9.80378C37.3005 9.78638 37.3027 9.76871 37.3091 9.75238C37.3155 9.73604 37.3258 9.72153 37.3391 9.71016C37.3525 9.69878 37.3684 9.69089 37.3856 9.6872C37.4027 9.6835 37.4205 9.68411 37.4374 9.68898L38.1479 9.89605C38.1814 9.90588 38.2106 9.92677 38.2308 9.95532C38.2509 9.98387 38.2608 10.0184 38.2587 10.0533Z" fill="url(#paint65_linear_93_956)"/>
<path d="M31.102 13.5121C31.102 13.5121 32.1243 14.6403 34.2306 14.4587C36.6168 14.2529 37.3997 12.6478 37.3997 12.6478C37.3997 12.6478 37.575 16.8926 40.1492 18.5144C40.2101 18.0107 40.2255 17.6047 40.2255 17.6047C38.0018 15.8302 38.2145 10.9032 38.2582 10.0532C38.26 10.0185 38.2499 9.98415 38.2298 9.95581C38.2096 9.92747 38.1805 9.90676 38.1471 9.89702L37.4366 9.68995C37.4197 9.68509 37.4019 9.68448 37.3848 9.68817C37.3676 9.69187 37.3517 9.69976 37.3383 9.71113C37.325 9.72251 37.3147 9.73701 37.3083 9.75335C37.302 9.76969 37.2997 9.78735 37.3019 9.80476C37.392 10.5023 37.5299 13.2359 34.2306 13.5943C30.8085 13.9655 30.3111 10.6747 30.2469 10.037C30.2456 10.0256 30.2414 10.0147 30.2349 10.0053C30.2283 9.99586 30.2196 9.98819 30.2093 9.98295C30.1991 9.97771 30.1878 9.97506 30.1763 9.97524C30.1648 9.97543 30.1536 9.97843 30.1435 9.98399L29.4086 10.3849C29.3876 10.3964 29.3716 10.4152 29.3634 10.4377C29.3553 10.4601 29.3556 10.4848 29.3643 10.5071C31.3671 15.656 28.2632 18.0396 28.2632 18.0396C28.2632 18.0396 28.3854 18.5065 28.5511 19.1677C29.5207 18.5865 31.4427 16.9827 31.102 13.5121Z" fill="url(#paint66_linear_93_956)"/>
<path d="M24.7633 21.044C24.7553 21.044 24.7474 21.0429 24.7397 21.0406C23.9504 20.8038 23.1068 21.0385 23.0985 21.0406C23.0881 21.0436 23.0772 21.0445 23.0664 21.0432C23.0556 21.042 23.0451 21.0386 23.0357 21.0333C23.0262 21.028 23.0178 21.0209 23.0111 21.0124C23.0043 21.0039 22.9993 20.9942 22.9963 20.9837C22.9934 20.9733 22.9925 20.9623 22.9937 20.9516C22.995 20.9408 22.9983 20.9303 23.0036 20.9208C23.0089 20.9113 23.016 20.903 23.0245 20.8962C23.033 20.8895 23.0428 20.8845 23.0532 20.8815C23.0895 20.8712 23.9504 20.631 24.7869 20.8815C24.8061 20.887 24.8225 20.8992 24.8333 20.9159C24.8441 20.9327 24.8485 20.9527 24.8456 20.9724C24.8427 20.9921 24.8328 21.0101 24.8177 21.023C24.8025 21.036 24.7832 21.0429 24.7633 21.0427V21.044Z" fill="url(#paint67_linear_93_956)"/>
<path d="M28.9627 26.3711C28.9611 26.2783 28.9856 26.187 29.0332 26.1075C29.2377 25.7671 29.8337 24.8383 30.2375 24.872C30.7314 24.9133 32.8305 25.901 33.0773 26.0245C33.1805 26.0776 33.2629 26.2067 33.3223 26.3427C33.3363 26.3755 33.3402 26.4118 33.3335 26.4468C33.3269 26.4819 33.3101 26.5142 33.2851 26.5397C33.2602 26.5652 33.2283 26.5828 33.1934 26.5902C33.1585 26.5976 33.1222 26.5945 33.089 26.5813L31.5958 25.984C31.5958 25.984 33.4066 26.9716 33.6124 27.2187C33.8181 27.4658 33.5302 27.6713 33.2831 27.5899C33.036 27.5085 31.3898 26.5198 31.3898 26.5198C31.3898 26.5198 33.1598 27.5899 33.2009 27.8781C33.242 28.1663 32.7891 28.0838 32.379 27.8781C31.9688 27.6723 31.0207 27.0959 31.0207 27.0959C31.0207 27.0959 32.2138 27.8781 32.379 28.0838C32.5442 28.2896 32.4201 28.4497 31.9879 28.4314C31.5557 28.4131 30.238 27.5488 30.238 27.5488L29.9087 27.8781C29.9087 27.8781 29.0001 28.5478 28.9627 26.3711Z" fill="url(#paint68_linear_93_956)"/>
<path d="M47.6476 6.30919C47.6476 6.30919 47.6065 5.8566 47.3183 5.73305C47.0391 5.61321 44.9027 4.75842 43.2724 5.23168C43.1743 5.26059 43.0903 5.32458 43.0364 5.41144C42.7607 5.85157 41.9228 7.26049 42.338 7.50282C42.338 7.50282 42.338 7.83212 42.7498 7.79102C42.7498 7.79102 43.0791 7.99677 43.4495 7.87322C43.4495 7.87322 44.2714 7.95567 44.7253 7.87322C45.1792 7.79076 45.0965 7.62638 45.0965 7.62638C45.0965 7.62638 46.4137 7.87322 47.032 7.29708C47.6503 6.72094 47.6476 6.30919 47.6476 6.30919Z" fill="url(#paint69_linear_93_956)"/>
<path d="M42.3794 7.44119C42.3702 7.44101 42.3612 7.43884 42.3529 7.43483C42.3382 7.42748 42.327 7.41463 42.3218 7.39908C42.3166 7.38353 42.3178 7.36654 42.325 7.35184L43.1072 5.78755C43.1145 5.77289 43.1274 5.76174 43.143 5.75657C43.1585 5.7514 43.1755 5.75262 43.1902 5.75997C43.2048 5.76732 43.216 5.78019 43.2211 5.79576C43.2263 5.81132 43.2251 5.8283 43.2177 5.84296L42.4356 7.40725C42.4304 7.41762 42.4223 7.4263 42.4124 7.43231C42.4024 7.43831 42.391 7.44139 42.3794 7.44119Z" fill="url(#paint70_linear_93_956)"/>
<path d="M42.8322 7.68963C42.8237 7.68955 42.8153 7.68775 42.8075 7.68432C42.8001 7.68107 42.7934 7.67638 42.7877 7.67053C42.7821 7.66468 42.7777 7.65778 42.7747 7.65022C42.7718 7.64266 42.7704 7.63459 42.7705 7.62648C42.7707 7.61836 42.7724 7.61036 42.7757 7.60293L43.5165 5.91323C43.5197 5.90579 43.5244 5.89907 43.5303 5.89345C43.5361 5.88783 43.543 5.88342 43.5506 5.88046C43.5582 5.87751 43.5662 5.87607 43.5743 5.87623C43.5825 5.8764 43.5905 5.87816 43.5979 5.88141C43.6053 5.88467 43.612 5.88935 43.6177 5.89521C43.6233 5.90106 43.6277 5.90796 43.6307 5.91552C43.6336 5.92308 43.635 5.93114 43.6349 5.93926C43.6347 5.94737 43.633 5.95537 43.6297 5.96281L42.8889 7.65012C42.8844 7.66159 42.8767 7.67148 42.8666 7.67851C42.8565 7.68555 42.8445 7.68941 42.8322 7.68963Z" fill="url(#paint71_linear_93_956)"/>
<path d="M43.4497 7.85316C43.4416 7.85316 43.4335 7.85154 43.426 7.8484C43.4185 7.84526 43.4117 7.84066 43.406 7.83487L43.3969 7.82586C43.331 7.75968 43.2886 7.67374 43.2762 7.58118C43.2638 7.48861 43.2821 7.39454 43.3283 7.31335L44.0123 6.11441C44.0215 6.10255 44.0346 6.09441 44.0493 6.09151C44.064 6.0886 44.0792 6.09113 44.0922 6.09861C44.1051 6.1061 44.1149 6.11804 44.1197 6.13221C44.1246 6.14638 44.1241 6.16182 44.1184 6.17566L43.433 7.3746C43.4002 7.43226 43.3872 7.49909 43.396 7.56483C43.4048 7.63058 43.435 7.69163 43.4818 7.73863L43.4911 7.74764C43.4998 7.7563 43.5057 7.76736 43.5082 7.77941C43.5106 7.79145 43.5094 7.80395 43.5047 7.81531C43.5 7.82667 43.4921 7.83639 43.4818 7.84322C43.4716 7.85005 43.4596 7.8537 43.4473 7.85369L43.4497 7.85316Z" fill="url(#paint72_linear_93_956)"/>
<path d="M37.6489 3.43454C37.6587 3.50878 36.5984 8.34933 36.5984 8.34933L33.8474 7.6865L34.1706 2.94934C34.1706 2.94934 37.4898 2.19 37.6489 3.43454Z" fill="url(#paint73_linear_93_956)"/>
<path d="M34.9758 3.7457C34.9217 3.77625 34.8754 3.81878 34.8402 3.87002C34.8051 3.92126 34.7822 3.97986 34.7733 4.04133L34.4143 6.48587C34.409 6.5228 34.409 6.56029 34.4143 6.59722C34.4408 6.80191 34.5826 7.44698 35.2457 7.26934C35.811 7.11795 36.3328 6.98644 36.7106 7.06624C36.763 7.07762 36.8127 7.0993 36.8567 7.13C36.9008 7.16071 36.9383 7.19985 36.9671 7.24514C36.9959 7.29044 37.0154 7.341 37.0245 7.39389C37.0337 7.44679 37.0322 7.50097 37.0203 7.5533C36.9192 8.00721 36.6965 8.91874 36.3839 9.70088C36.3459 9.79529 36.2736 9.87186 36.1815 9.91531C36.0895 9.95875 35.9844 9.96588 35.8873 9.93526C35.3571 9.76982 34.327 9.41586 33.5478 8.93862C33.4849 8.90013 33.4337 8.84525 33.3996 8.77986C33.3655 8.71448 33.3498 8.64104 33.3543 8.56743C33.3914 7.90805 33.4868 6.05953 33.4338 5.5335C33.3842 5.0446 32.8046 4.7381 32.5281 4.61959C32.4763 4.5974 32.4297 4.56475 32.3911 4.52369C32.3526 4.48263 32.3229 4.43403 32.3041 4.38097C32.189 4.05803 32.0718 3.39254 32.9072 3.11309C33.0071 3.07801 33.0893 3.00544 33.1365 2.91076C33.1837 2.81608 33.1922 2.70673 33.1602 2.60589C33.0432 2.23126 33.0247 1.6925 33.7024 1.40059C34.3885 1.1047 34.9 1.44699 35.1906 1.7511C35.3189 1.88552 35.5254 1.92953 35.6893 1.84124C35.7304 1.81882 35.7767 1.80751 35.8235 1.80844C35.8703 1.80937 35.9161 1.82251 35.9563 1.84655C36.1535 1.95074 36.3914 1.88711 36.4969 1.69065C36.678 1.3534 37.0301 1.01137 37.7027 1.13652C38.9367 1.36586 39.057 2.73846 38.7192 3.53678C38.3815 4.3351 37.0582 4.01057 36.3977 3.59617C35.9123 3.29259 35.2783 3.57443 34.9758 3.7457Z" fill="url(#paint74_linear_93_956)"/>
<path d="M33.3092 6.43883C33.3092 6.43883 33.8378 5.02222 33.3206 4.66614C32.8033 4.31006 32.027 4.48055 32.1826 5.51457C32.3762 6.79994 33.3092 6.43883 33.3092 6.43883Z" fill="url(#paint75_linear_93_956)"/>
<path d="M39.1783 51.1518C38.1167 51.5444 36.9524 51.5609 35.88 51.1987C34.6869 50.7991 32.7499 50.7135 29.8146 52.0291C24.0612 54.6083 24.2632 65.8622 32.4317 67.5453C43.1002 69.7435 48.1046 64.4588 49.0257 60.6573C49.9467 56.8559 47.5096 52.0219 42.7746 50.989C41.2241 50.6506 40.0334 50.8325 39.1783 51.1518Z" fill="url(#paint76_linear_93_956)"/>
<path opacity="0.23" d="M31.8057 52.8739C32.7429 52.9346 34.4904 53.3347 32.8885 55.3831C31.2865 57.4316 29.9428 60.8144 30.6269 63.0079C31.3109 65.2013 26.862 62.4901 26.6075 59.5731C26.3529 56.656 28.8945 52.6854 31.8057 52.8739Z" fill="white"/>
<path d="M40.6169 52.4336C40.6169 52.9671 39.2422 53.3992 37.5461 53.3992C35.8501 53.3992 34.4753 52.9671 34.4753 52.4336C34.4753 51.9002 35.8503 52.4336 37.5461 52.4336C39.2419 52.4336 40.6169 51.9002 40.6169 52.4336Z" fill="url(#paint77_linear_93_956)"/>
<path d="M36.7498 52.3028C36.7498 52.3028 35.7728 48.2462 40.405 45.6508C45.0371 43.0554 44.9329 42.82 45.1856 44.1926C45.4383 45.5652 46.8363 50.4328 41.7606 52.5239C36.6849 54.615 36.7498 52.3028 36.7498 52.3028Z" fill="url(#paint78_linear_93_956)"/>
<path opacity="0.23" d="M44.3499 44.3436C43.6231 45.5269 40.2488 50.8659 37.2795 52.9777C37.2795 52.9777 40.8013 53.4321 43.3278 51.0663C45.4886 49.0431 44.8054 45.3925 44.5623 44.3773C44.5569 44.3549 44.545 44.3346 44.5281 44.319C44.5112 44.3034 44.49 44.2931 44.4673 44.2895C44.4446 44.2859 44.4213 44.2891 44.4004 44.2988C44.3795 44.3084 44.3619 44.324 44.3499 44.3436Z" fill="white"/>
<path d="M36.8426 53.1005C36.92 53.6401 37.3798 53.0451 37.1642 51.9729C36.9487 50.9007 36.7275 48.3509 35.1797 48.7963C33.6318 49.2417 36.5152 50.8222 36.8426 53.1005Z" fill="url(#paint79_linear_93_956)"/>
<path d="M12.5937 49.4749C12.5937 49.4749 11.1089 52.9431 9.43277 56.243C7.75659 59.5428 7.3451 63.3486 11.3508 65.3877C15.3564 67.4269 20.9189 66.817 23.093 63.1823C25.2671 59.5476 22.5858 56.563 19.8849 54.6278C17.184 52.6926 14.8336 51.9274 14.2375 49.0491L12.5937 49.4749Z" fill="url(#paint80_linear_93_956)"/>
<g style="mix-blend-mode:soft-light">
<path d="M18.2213 61.7645C18.1976 61.7645 18.1749 61.7551 18.1581 61.7384C18.1412 61.7217 18.1317 61.6991 18.1315 61.6754C18.1134 59.8921 17.2345 58.529 16.2164 56.9507C15.238 55.4341 14.1292 53.716 13.6677 51.3118C13.6644 51.289 13.67 51.2657 13.6834 51.2469C13.6969 51.2281 13.717 51.2152 13.7396 51.2108C13.7623 51.2065 13.7858 51.211 13.8052 51.2235C13.8246 51.236 13.8385 51.2554 13.844 51.2779C14.2992 53.6471 15.3979 55.3506 16.3672 56.8534C17.4013 58.4551 18.2927 59.8383 18.3109 61.6738C18.3111 61.6856 18.3089 61.6973 18.3045 61.7082C18.3001 61.7192 18.2936 61.7291 18.2854 61.7376C18.2771 61.746 18.2673 61.7527 18.2564 61.7573C18.2456 61.7619 18.2339 61.7644 18.2221 61.7645H18.2213Z" fill="white"/>
</g>
<g style="mix-blend-mode:soft-light">
<path d="M11.3959 58.2832C11.3821 58.2831 11.3685 58.2799 11.3561 58.2738C11.3438 58.2677 11.333 58.2589 11.3246 58.2479C11.3162 58.237 11.3104 58.2243 11.3077 58.2108C11.305 58.1972 11.3054 58.1833 11.3089 58.1699C11.4375 57.6946 11.5762 57.2282 11.7228 56.7342C12.1618 55.2566 12.6595 53.5815 12.9922 51.2194C12.9963 51.1965 13.0091 51.1761 13.0279 51.1624C13.0468 51.1487 13.0702 51.1429 13.0932 51.1461C13.1163 51.1494 13.1372 51.1614 13.1515 51.1797C13.1659 51.198 13.1725 51.2212 13.1702 51.2444C12.8356 53.6186 12.3358 55.3009 11.8949 56.7843C11.7485 57.277 11.6104 57.7425 11.4823 58.2161C11.4773 58.2352 11.4662 58.2522 11.4505 58.2643C11.4349 58.2765 11.4157 58.2831 11.3959 58.2832Z" fill="white"/>
</g>
<g style="mix-blend-mode:soft-light">
<path d="M22.4686 61.4557C22.4473 61.4557 22.4267 61.4481 22.4105 61.4343C22.3943 61.4205 22.3835 61.4014 22.38 61.3804C21.9725 58.9194 20.5771 56.9063 17.9915 55.045C16.7804 54.1732 15.2911 53 14.5225 51.6534C14.5107 51.6327 14.5076 51.6082 14.5139 51.5853C14.5202 51.5623 14.5354 51.5428 14.556 51.5311C14.5767 51.5193 14.6012 51.5162 14.6242 51.5225C14.6471 51.5288 14.6666 51.5439 14.6784 51.5646C15.4301 52.881 16.9 54.038 18.0965 54.8992C20.724 56.7899 22.1414 58.8401 22.5571 61.3512C22.5591 61.3628 22.5587 61.3747 22.556 61.3862C22.5534 61.3977 22.5485 61.4085 22.5416 61.4181C22.5348 61.4276 22.5261 61.4358 22.5161 61.442C22.5062 61.4482 22.495 61.4524 22.4834 61.4544C22.4785 61.4552 22.4736 61.4556 22.4686 61.4557Z" fill="white"/>
</g>
<path d="M25.8569 60.3396C25.8569 60.3396 23.8035 61.1231 22.9537 58.7247C22.104 56.3263 25.214 55.7162 26.6751 55.7586C28.6225 55.8151 30.5411 56.4811 30.1617 58.6048C29.9567 59.7526 28.6422 60.0851 28.6422 60.0851C28.6422 60.0851 28.6305 60.4807 28.8193 60.9804C29.0529 61.5985 29.494 62.3591 29.4659 62.5156C29.415 62.8001 26.4349 63.7659 26.1234 63.4032C26.1234 63.4032 26.0823 62.4302 26.0566 61.6865C26.0327 60.9977 25.8569 60.3396 25.8569 60.3396Z" fill="url(#paint81_linear_93_956)"/>
<path d="M21.7988 63.8412C21.7988 63.8412 20.0471 64.8392 18.9404 62.7841C17.8338 60.7291 20.5668 59.7401 21.8999 59.5736C23.6731 59.352 25.5057 59.6866 25.4596 61.6653C25.4346 62.7346 24.2895 63.2203 24.2895 63.2203C24.2895 63.2203 24.3346 63.5803 24.5756 64.0069C24.8739 64.5346 25.3805 65.1616 25.3771 65.3082C25.371 65.5734 22.8053 66.8667 22.4712 66.5809C22.4712 66.5809 22.2976 65.7043 22.17 65.0341C22.0505 64.4131 21.7988 63.8412 21.7988 63.8412Z" fill="url(#paint82_linear_93_956)"/>
<path d="M32.8176 64.8087C32.8176 64.8087 31.0722 65.1942 30.674 63.1633C30.2758 61.1323 32.85 61.012 34.0219 61.2204C35.5819 61.4982 37.0462 62.2626 36.4876 63.9261C36.1859 64.8251 35.0885 64.936 35.0885 64.936C35.0885 64.936 35.032 65.2541 35.1243 65.6783C35.2386 66.2036 35.5032 66.8675 35.4618 66.9905C35.3868 67.2135 32.8738 67.6353 32.6665 67.3065C32.6665 67.3065 32.7495 66.5185 32.8174 65.9172C32.8543 65.5486 32.8544 65.1773 32.8176 64.8087Z" fill="url(#paint83_linear_93_956)"/>
<g style="mix-blend-mode:soft-light">
<path d="M21.7572 64.002C21.739 64.002 21.7214 63.9965 21.7064 63.9863C21.6915 63.9761 21.6799 63.9615 21.6734 63.9447C21.6668 63.9278 21.6655 63.9093 21.6696 63.8917C21.6737 63.874 21.6831 63.858 21.6964 63.8458C21.9109 63.6504 22.0427 63.4746 22.1111 63.2917C22.1949 63.0671 22.1724 62.829 22.052 62.671C21.9247 62.5037 21.6705 62.4504 21.5185 62.5588C21.509 62.5663 21.498 62.5718 21.4863 62.5749C21.4746 62.578 21.4624 62.5787 21.4503 62.577C21.4383 62.5753 21.4268 62.5711 21.4165 62.5648C21.4061 62.5585 21.3971 62.5502 21.3901 62.5403C21.383 62.5305 21.378 62.5193 21.3754 62.5074C21.3728 62.4956 21.3726 62.4833 21.3748 62.4714C21.3771 62.4595 21.3817 62.4482 21.3885 62.4381C21.3952 62.428 21.4039 62.4194 21.4141 62.4128C21.6445 62.2484 22.009 62.3184 22.1949 62.5623C22.3521 62.7691 22.3845 63.0727 22.2792 63.3545C22.1997 63.565 22.0538 63.7634 21.8173 63.9786C21.8009 63.9937 21.7794 64.002 21.7572 64.002Z" fill="white"/>
</g>
<g style="mix-blend-mode:soft-light">
<path d="M24.1635 63.3466C23.8737 63.3466 23.5826 63.1875 23.4423 62.9325C23.2673 62.6143 23.3448 62.1771 23.6189 61.9382C23.6277 61.93 23.6381 61.9236 23.6494 61.9195C23.6608 61.9154 23.6728 61.9136 23.6849 61.9142C23.6969 61.9148 23.7087 61.9179 23.7196 61.9231C23.7304 61.9284 23.7401 61.9358 23.748 61.9449C23.7559 61.954 23.7619 61.9646 23.7657 61.9761C23.7694 61.9875 23.7708 61.9996 23.7698 62.0117C23.7687 62.0237 23.7653 62.0354 23.7596 62.046C23.754 62.0567 23.7463 62.0661 23.7369 62.0737C23.5248 62.2593 23.4638 62.5984 23.5998 62.8458C23.6711 62.9683 23.7808 63.064 23.912 63.1179C24.0431 63.1718 24.1883 63.181 24.3252 63.1441C24.3481 63.1373 24.3727 63.1398 24.3936 63.1512C24.4146 63.1626 24.4302 63.1818 24.437 63.2046C24.4438 63.2275 24.4412 63.2521 24.4298 63.2731C24.4185 63.294 24.3992 63.3096 24.3764 63.3164C24.3072 63.3366 24.2355 63.3468 24.1635 63.3466Z" fill="white"/>
</g>
<g style="mix-blend-mode:soft-light">
<path d="M25.9235 60.3649C25.9053 60.365 25.8876 60.3595 25.8726 60.3493C25.8576 60.3391 25.846 60.3245 25.8395 60.3076C25.8329 60.2907 25.8317 60.2722 25.8359 60.2545C25.8401 60.2368 25.8496 60.2209 25.863 60.2087C26.0775 60.0138 26.2077 59.8375 26.2774 59.6548C26.3615 59.4303 26.3387 59.1922 26.2183 59.0342C26.0911 58.8669 25.8368 58.8136 25.6849 58.922C25.6655 58.9347 25.6419 58.9393 25.6191 58.935C25.5964 58.9308 25.5761 58.9178 25.5627 58.899C25.5492 58.8802 25.5435 58.8568 25.5468 58.8339C25.5501 58.811 25.5622 58.7902 25.5804 58.7759C25.8108 58.6118 26.1756 58.6815 26.3612 58.9255C26.5187 59.132 26.5511 59.4356 26.4458 59.7177C26.3663 59.9298 26.2202 60.1265 25.9839 60.3415C25.9674 60.3566 25.9458 60.3649 25.9235 60.3649Z" fill="white"/>
</g>
<g style="mix-blend-mode:soft-light">
<path d="M28.3626 60.2322C28.0418 60.2322 27.747 60.0514 27.5707 59.7306C27.4399 59.492 27.4537 59.1582 27.6038 58.9352C27.7337 58.7427 27.9445 58.6528 28.1977 58.6833C28.2213 58.6861 28.2429 58.6982 28.2576 58.7169C28.2723 58.7356 28.279 58.7594 28.2762 58.783C28.2734 58.8066 28.2613 58.8282 28.2426 58.8429C28.2239 58.8576 28.2001 58.8643 28.1765 58.8615C27.9909 58.8395 27.8443 58.8997 27.7523 59.0357C27.6396 59.2027 27.629 59.4639 27.7276 59.6434C27.9076 59.9708 28.2364 60.1206 28.566 60.0215C28.5886 60.0154 28.6127 60.0184 28.6331 60.0299C28.6536 60.0414 28.6687 60.0604 28.6753 60.0828C28.682 60.1053 28.6796 60.1295 28.6687 60.1502C28.6577 60.1709 28.6392 60.1866 28.6169 60.1938C28.5344 60.2188 28.4488 60.2318 28.3626 60.2322Z" fill="white"/>
</g>
<g style="mix-blend-mode:soft-light">
<path d="M32.7703 64.9476C32.7506 64.9477 32.7315 64.9413 32.7158 64.9294C32.7002 64.9175 32.6888 64.9007 32.6836 64.8818C32.6784 64.8628 32.6796 64.8426 32.687 64.8244C32.6943 64.8061 32.7075 64.7908 32.7245 64.7808C32.9448 64.6483 33.0898 64.5205 33.1813 64.3744C33.2926 64.1959 33.3138 63.9881 33.2393 63.8317C33.1598 63.6678 32.9538 63.5782 32.8066 63.6439C32.785 63.6529 32.7607 63.653 32.739 63.6444C32.7173 63.6357 32.6998 63.6189 32.6902 63.5975C32.6807 63.5761 32.6799 63.5518 32.6879 63.5299C32.696 63.5079 32.7124 63.4899 32.7335 63.4798C32.9681 63.3751 33.2802 63.5032 33.4011 63.7537C33.5032 63.9658 33.4772 64.2394 33.3335 64.4696C33.2274 64.6411 33.0622 64.7877 32.8162 64.9354C32.8023 64.9435 32.7864 64.9477 32.7703 64.9476Z" fill="white"/>
</g>
<g style="mix-blend-mode:soft-light">
<path d="M35.0449 65.0089C35.038 65.0089 35.0311 65.0081 35.0244 65.0065C34.6485 64.9192 34.2468 64.7737 34.1166 64.3558C34.044 64.1217 34.1166 63.8285 34.2892 63.6585C34.4396 63.5108 34.6432 63.4695 34.8624 63.5419C34.8841 63.5501 34.9017 63.5664 34.9117 63.5873C34.9216 63.6082 34.9231 63.6322 34.9158 63.6541C34.9085 63.6761 34.893 63.6945 34.8726 63.7053C34.8521 63.7162 34.8283 63.7187 34.806 63.7123C34.6517 63.6609 34.5164 63.6858 34.4152 63.7866C34.2898 63.9099 34.2351 64.1313 34.2882 64.3025C34.3714 64.5695 34.5962 64.7228 35.065 64.8328C35.0866 64.8376 35.1057 64.8502 35.1186 64.8682C35.1314 64.8863 35.1372 64.9084 35.1347 64.9304C35.1322 64.9524 35.1216 64.9727 35.105 64.9874C35.0884 65.0021 35.067 65.0101 35.0449 65.0099V65.0089Z" fill="white"/>
</g>
<path d="M27.3387 68.2256C27.3387 68.2256 29.0416 69.3045 30.2432 67.3032C31.4448 65.302 28.7606 64.1863 27.4381 63.958C25.6771 63.6539 23.8309 63.9026 23.7848 65.881C23.7599 66.9506 24.8809 67.4891 24.8809 67.4891C24.8809 67.4891 24.8191 67.8468 24.5585 68.2617C24.2358 68.7747 23.7005 69.3776 23.697 69.524C23.6909 69.7891 26.1941 71.201 26.5403 70.9316C26.5403 70.9316 26.7546 70.0641 26.9134 69.4004C27.0603 68.7853 27.3387 68.2256 27.3387 68.2256Z" fill="url(#paint84_linear_93_956)"/>
<g style="mix-blend-mode:soft-light">
<path d="M24.8314 67.6099C24.8096 67.6098 24.7885 67.6018 24.7721 67.5874C24.7557 67.5729 24.7452 67.553 24.7424 67.5314C24.7397 67.5097 24.7449 67.4878 24.7571 67.4697C24.7693 67.4516 24.7877 67.4386 24.8089 67.433C25.0894 67.3601 25.288 67.2655 25.4335 67.1356C25.6122 66.9765 25.7026 66.7546 25.6695 66.5584C25.6348 66.3513 25.4343 66.1853 25.2493 66.2113C25.2257 66.2143 25.2019 66.2079 25.183 66.1936C25.1641 66.1792 25.1516 66.1579 25.1482 66.1344C25.1466 66.1227 25.1473 66.1109 25.1503 66.0995C25.1533 66.0881 25.1585 66.0774 25.1656 66.068C25.1727 66.0586 25.1816 66.0507 25.1918 66.0448C25.202 66.0389 25.2132 66.035 25.2249 66.0334C25.5051 65.9941 25.7957 66.2261 25.8466 66.5287C25.8898 66.7848 25.7774 67.0687 25.5531 67.2692C25.3855 67.4192 25.1634 67.5266 24.8542 67.607C24.8467 67.6088 24.8391 67.6098 24.8314 67.6099Z" fill="white"/>
</g>
<g style="mix-blend-mode:soft-light">
<path d="M27.4509 68.4454C27.4356 68.4454 27.4205 68.4414 27.4072 68.4337C27.032 68.2235 26.647 67.943 26.6383 67.4572C26.6333 67.1857 26.8011 66.8965 27.036 66.7692C27.2407 66.6592 27.469 66.678 27.6792 66.8223C27.6895 66.8287 27.6984 66.8371 27.7053 66.8471C27.7122 66.8571 27.7171 66.8683 27.7195 66.8802C27.722 66.8921 27.722 66.9043 27.7196 66.9162C27.7172 66.9281 27.7124 66.9394 27.7056 66.9494C27.6987 66.9594 27.6899 66.9679 27.6796 66.9744C27.6694 66.9809 27.6579 66.9852 27.6459 66.9872C27.6339 66.9891 27.6217 66.9886 27.6099 66.9857C27.5982 66.9828 27.5871 66.9775 27.5774 66.9702C27.4234 66.8641 27.2656 66.8498 27.1211 66.9272C26.9437 67.023 26.813 67.2491 26.817 67.4538C26.8228 67.772 27.0193 68.0106 27.4944 68.2773C27.5117 68.2871 27.5252 68.3023 27.5329 68.3205C27.5406 68.3388 27.5421 68.3591 27.5371 68.3783C27.5321 68.3975 27.5208 68.4145 27.5052 68.4266C27.4895 68.4387 27.4702 68.4453 27.4504 68.4454H27.4509Z" fill="white"/>
</g>
<defs>
<linearGradient id="paint0_linear_93_956" x1="82.4462" y1="86.346" x2="29.7653" y2="30.2664" gradientUnits="userSpaceOnUse">
<stop stop-color="#B37CFF"/>
<stop offset="1" stop-color="#F895E7"/>
</linearGradient>
<linearGradient id="paint1_linear_93_956" x1="50.7383" y1="28.6962" x2="57.8283" y2="52.0941" gradientUnits="userSpaceOnUse">
<stop stop-color="#41A362"/>
<stop offset="1" stop-color="#204F2E"/>
</linearGradient>
<linearGradient id="paint2_linear_93_956" x1="43.5086" y1="-4.47969" x2="41.1729" y2="27.9431" gradientUnits="userSpaceOnUse">
<stop stop-color="#41A362"/>
<stop offset="1" stop-color="#204F2E"/>
</linearGradient>
<linearGradient id="paint3_linear_93_956" x1="80.8664" y1="9.33819" x2="50.237" y2="66.6866" gradientUnits="userSpaceOnUse">
<stop stop-color="#41A362"/>
<stop offset="1" stop-color="#204F2E"/>
</linearGradient>
<linearGradient id="paint4_linear_93_956" x1="53.7171" y1="34.3383" x2="32.552" y2="20.4594" gradientUnits="userSpaceOnUse">
<stop stop-color="#41A362"/>
<stop offset="1" stop-color="#204F2E"/>
</linearGradient>
<linearGradient id="paint5_linear_93_956" x1="65.7215" y1="13.8857" x2="43.6193" y2="39.0831" gradientUnits="userSpaceOnUse">
<stop stop-color="#41A362"/>
<stop offset="1" stop-color="#204F2E"/>
</linearGradient>
<linearGradient id="paint6_linear_93_956" x1="52.1531" y1="18.6287" x2="35.5264" y2="47.6928" gradientUnits="userSpaceOnUse">
<stop stop-color="#41A362"/>
<stop offset="1" stop-color="#204F2E"/>
</linearGradient>
<linearGradient id="paint7_linear_93_956" x1="48.9716" y1="7.17266" x2="27.7037" y2="43.3893" gradientUnits="userSpaceOnUse">
<stop stop-color="#41A362"/>
<stop offset="1" stop-color="#204F2E"/>
</linearGradient>
<linearGradient id="paint8_linear_93_956" x1="58.3178" y1="27.8205" x2="82.9112" y2="83.9376" gradientUnits="userSpaceOnUse">
<stop stop-color="#41A362"/>
<stop offset="1" stop-color="#204F2E"/>
</linearGradient>
<linearGradient id="paint9_linear_93_956" x1="58.0441" y1="19.2291" x2="40.5661" y2="48.3469" gradientUnits="userSpaceOnUse">
<stop stop-color="#41A362"/>
<stop offset="1" stop-color="#204F2E"/>
</linearGradient>
<linearGradient id="paint10_linear_93_956" x1="19.9791" y1="48.0743" x2="23.6578" y2="68.5815" gradientUnits="userSpaceOnUse">
<stop stop-color="#41A362"/>
<stop offset="1" stop-color="#204F2E"/>
</linearGradient>
<linearGradient id="paint11_linear_93_956" x1="15.6072" y1="29.3044" x2="30.7261" y2="31.1768" gradientUnits="userSpaceOnUse">
<stop stop-color="#41A362"/>
<stop offset="1" stop-color="#204F2E"/>
</linearGradient>
<linearGradient id="paint12_linear_93_956" x1="20.4192" y1="32.5488" x2="29.2949" y2="33.6481" gradientUnits="userSpaceOnUse">
<stop stop-color="#41A362"/>
<stop offset="1" stop-color="#204F2E"/>
</linearGradient>
<linearGradient id="paint13_linear_93_956" x1="7.71824" y1="10.2812" x2="18.9451" y2="33.7348" gradientUnits="userSpaceOnUse">
<stop stop-color="#41A362"/>
<stop offset="1" stop-color="#204F2E"/>
</linearGradient>
<linearGradient id="paint14_linear_93_956" x1="10.4481" y1="26.2219" x2="25.858" y2="28.1304" gradientUnits="userSpaceOnUse">
<stop stop-color="#41A362"/>
<stop offset="1" stop-color="#204F2E"/>
</linearGradient>
<linearGradient id="paint15_linear_93_956" x1="14.0146" y1="5.67238" x2="22.7945" y2="49.9387" gradientUnits="userSpaceOnUse">
<stop stop-color="#FDF53F"/>
<stop offset="1" stop-color="#D93C65"/>
</linearGradient>
<linearGradient id="paint16_linear_93_956" x1="-12.6171" y1="28.9309" x2="21.5887" y2="56.3686" gradientUnits="userSpaceOnUse">
<stop stop-color="#FDF53F"/>
<stop offset="1" stop-color="#D93C65"/>
</linearGradient>
<linearGradient id="paint17_linear_93_956" x1="15.7647" y1="31.7518" x2="13.9632" y2="52.2437" gradientUnits="userSpaceOnUse">
<stop stop-color="#41A362"/>
<stop offset="1" stop-color="#204F2E"/>
</linearGradient>
<linearGradient id="paint18_linear_93_956" x1="12.0898" y1="35.175" x2="14.8787" y2="40.5678" gradientUnits="userSpaceOnUse">
<stop stop-color="#41A362"/>
<stop offset="1" stop-color="#204F2E"/>
</linearGradient>
<linearGradient id="paint19_linear_93_956" x1="76.4222" y1="22.5097" x2="47.4126" y2="74.3752" gradientUnits="userSpaceOnUse">
<stop stop-color="#CB236D"/>
<stop offset="1" stop-color="#4C246D"/>
</linearGradient>
<linearGradient id="paint20_linear_93_956" x1="61.6827" y1="39.4326" x2="39.2661" y2="83.5329" gradientUnits="userSpaceOnUse">
<stop stop-color="#CB236D"/>
<stop offset="1" stop-color="#4C246D"/>
</linearGradient>
<linearGradient id="paint21_linear_93_956" x1="66.1898" y1="30.6518" x2="59.3771" y2="43.8377" gradientUnits="userSpaceOnUse">
<stop stop-color="#41A362"/>
<stop offset="1" stop-color="#204F2E"/>
</linearGradient>
<linearGradient id="paint22_linear_93_956" x1="71.1444" y1="17.7703" x2="57.4455" y2="41.139" gradientUnits="userSpaceOnUse">
<stop stop-color="#41A362"/>
<stop offset="1" stop-color="#204F2E"/>
</linearGradient>
<linearGradient id="paint23_linear_93_956" x1="71.6167" y1="43.7718" x2="63.9605" y2="48.4501" gradientUnits="userSpaceOnUse">
<stop stop-color="#41A362"/>
<stop offset="1" stop-color="#204F2E"/>
</linearGradient>
<linearGradient id="paint24_linear_93_956" x1="66.1858" y1="47.3808" x2="70.9378" y2="51.4035" gradientUnits="userSpaceOnUse">
<stop stop-color="#41A362"/>
<stop offset="1" stop-color="#204F2E"/>
</linearGradient>
<linearGradient id="paint25_linear_93_956" x1="61.8776" y1="45.3669" x2="70.4269" y2="44.7495" gradientUnits="userSpaceOnUse">
<stop stop-color="#41A362"/>
<stop offset="1" stop-color="#204F2E"/>
</linearGradient>
<linearGradient id="paint26_linear_93_956" x1="63.162" y1="35.3188" x2="46.6926" y2="53.8703" gradientUnits="userSpaceOnUse">
<stop stop-color="#FDF53F"/>
<stop offset="1" stop-color="#D93C65"/>
</linearGradient>
<linearGradient id="paint27_linear_93_956" x1="59.8689" y1="42.9246" x2="57.135" y2="49.5569" gradientUnits="userSpaceOnUse">
<stop stop-color="#FDF53F"/>
<stop offset="1" stop-color="#D93C65"/>
</linearGradient>
<linearGradient id="paint28_linear_93_956" x1="58.0183" y1="45.3104" x2="54.4335" y2="54.0043" gradientUnits="userSpaceOnUse">
<stop stop-color="#FDF53F"/>
<stop offset="1" stop-color="#D93C65"/>
</linearGradient>
<linearGradient id="paint29_linear_93_956" x1="53.5327" y1="44.988" x2="50.8208" y2="51.5647" gradientUnits="userSpaceOnUse">
<stop stop-color="#FDF53F"/>
<stop offset="1" stop-color="#D93C65"/>
</linearGradient>
<linearGradient id="paint30_linear_93_956" x1="52.2333" y1="49.9221" x2="48.5739" y2="54.7626" gradientUnits="userSpaceOnUse">
<stop stop-color="#FDF53F"/>
<stop offset="1" stop-color="#D93C65"/>
</linearGradient>
<linearGradient id="paint31_linear_93_956" x1="47.876" y1="47.7379" x2="47.3277" y2="51.6151" gradientUnits="userSpaceOnUse">
<stop stop-color="#FDF53F"/>
<stop offset="1" stop-color="#D93C65"/>
</linearGradient>
<linearGradient id="paint32_linear_93_956" x1="48.1069" y1="49.9266" x2="44.351" y2="55.233" gradientUnits="userSpaceOnUse">
<stop stop-color="#FDF53F"/>
<stop offset="1" stop-color="#D93C65"/>
</linearGradient>
<linearGradient id="paint33_linear_93_956" x1="43.0658" y1="49.8545" x2="41.2734" y2="54.2015" gradientUnits="userSpaceOnUse">
<stop stop-color="#FDF53F"/>
<stop offset="1" stop-color="#D93C65"/>
</linearGradient>
<linearGradient id="paint34_linear_93_956" x1="38.8538" y1="51.4729" x2="37.0614" y2="55.8196" gradientUnits="userSpaceOnUse">
<stop stop-color="#FDF53F"/>
<stop offset="1" stop-color="#D93C65"/>
</linearGradient>
<linearGradient id="paint35_linear_93_956" x1="40.6991" y1="52.8178" x2="39.6876" y2="55.2715" gradientUnits="userSpaceOnUse">
<stop stop-color="#FDF53F"/>
<stop offset="1" stop-color="#D93C65"/>
</linearGradient>
<linearGradient id="paint36_linear_93_956" x1="71.0347" y1="51.1511" x2="63.9283" y2="54.4796" gradientUnits="userSpaceOnUse">
<stop stop-color="#41A362"/>
<stop offset="1" stop-color="#204F2E"/>
</linearGradient>
<linearGradient id="paint37_linear_93_956" x1="65.9585" y1="53.7802" x2="69.6712" y2="57.7034" gradientUnits="userSpaceOnUse">
<stop stop-color="#41A362"/>
<stop offset="1" stop-color="#204F2E"/>
</linearGradient>
<linearGradient id="paint38_linear_93_956" x1="62.4149" y1="51.5862" x2="69.8872" y2="51.8745" gradientUnits="userSpaceOnUse">
<stop stop-color="#41A362"/>
<stop offset="1" stop-color="#204F2E"/>
</linearGradient>
<linearGradient id="paint39_linear_93_956" x1="59.9468" y1="46.2797" x2="48.2101" y2="57.8271" gradientUnits="userSpaceOnUse">
<stop stop-color="#FDF53F"/>
<stop offset="1" stop-color="#D93C65"/>
</linearGradient>
<linearGradient id="paint40_linear_93_956" x1="60.9422" y1="49.2742" x2="57.8894" y2="54.8413" gradientUnits="userSpaceOnUse">
<stop stop-color="#FDF53F"/>
<stop offset="1" stop-color="#D93C65"/>
</linearGradient>
<linearGradient id="paint41_linear_93_956" x1="59.1122" y1="51.1981" x2="55.1138" y2="58.4896" gradientUnits="userSpaceOnUse">
<stop stop-color="#FDF53F"/>
<stop offset="1" stop-color="#D93C65"/>
</linearGradient>
<linearGradient id="paint42_linear_93_956" x1="55.2616" y1="50.4996" x2="52.2362" y2="56.0169" gradientUnits="userSpaceOnUse">
<stop stop-color="#FDF53F"/>
<stop offset="1" stop-color="#D93C65"/>
</linearGradient>
<linearGradient id="paint43_linear_93_956" x1="53.6195" y1="54.5692" x2="49.9374" y2="58.4617" gradientUnits="userSpaceOnUse">
<stop stop-color="#FDF53F"/>
<stop offset="1" stop-color="#D93C65"/>
</linearGradient>
<linearGradient id="paint44_linear_93_956" x1="50.06" y1="52.3912" x2="49.2017" y2="55.7375" gradientUnits="userSpaceOnUse">
<stop stop-color="#FDF53F"/>
<stop offset="1" stop-color="#D93C65"/>
</linearGradient>
<linearGradient id="paint45_linear_93_956" x1="49.8367" y1="54.0382" x2="46.0263" y2="58.312" gradientUnits="userSpaceOnUse">
<stop stop-color="#FDF53F"/>
<stop offset="1" stop-color="#D93C65"/>
</linearGradient>
<linearGradient id="paint46_linear_93_956" x1="45.7091" y1="53.7989" x2="43.7098" y2="57.4446" gradientUnits="userSpaceOnUse">
<stop stop-color="#FDF53F"/>
<stop offset="1" stop-color="#D93C65"/>
</linearGradient>
<linearGradient id="paint47_linear_93_956" x1="41.9005" y1="54.8276" x2="39.9012" y2="58.4733" gradientUnits="userSpaceOnUse">
<stop stop-color="#FDF53F"/>
<stop offset="1" stop-color="#D93C65"/>
</linearGradient>
<linearGradient id="paint48_linear_93_956" x1="43.3585" y1="56.1776" x2="42.2301" y2="58.2355" gradientUnits="userSpaceOnUse">
<stop stop-color="#FDF53F"/>
<stop offset="1" stop-color="#D93C65"/>
</linearGradient>
<linearGradient id="paint49_linear_93_956" x1="51.0928" y1="55.2128" x2="48.0044" y2="71.7515" gradientUnits="userSpaceOnUse">
<stop stop-color="#41A362"/>
<stop offset="1" stop-color="#204F2E"/>
</linearGradient>
<linearGradient id="paint50_linear_93_956" x1="52.4021" y1="55.4579" x2="49.3141" y2="71.9942" gradientUnits="userSpaceOnUse">
<stop stop-color="#41A362"/>
<stop offset="1" stop-color="#204F2E"/>
</linearGradient>
<linearGradient id="paint51_linear_93_956" x1="47.3323" y1="54.5111" x2="44.2442" y2="71.0484" gradientUnits="userSpaceOnUse">
<stop stop-color="#41A362"/>
<stop offset="1" stop-color="#204F2E"/>
</linearGradient>
<linearGradient id="paint52_linear_93_956" x1="55.8564" y1="56.2946" x2="58.201" y2="66.8269" gradientUnits="userSpaceOnUse">
<stop stop-color="#41A362"/>
<stop offset="1" stop-color="#204F2E"/>
</linearGradient>
<linearGradient id="paint53_linear_93_956" x1="43.8571" y1="63.931" x2="53.1284" y2="63.1703" gradientUnits="userSpaceOnUse">
<stop stop-color="#41A362"/>
<stop offset="1" stop-color="#204F2E"/>
</linearGradient>
<linearGradient id="paint54_linear_93_956" x1="56.6508" y1="67.4298" x2="64.66" y2="64.7997" gradientUnits="userSpaceOnUse">
<stop stop-color="#41A362"/>
<stop offset="1" stop-color="#204F2E"/>
</linearGradient>
<linearGradient id="paint55_linear_93_956" x1="6.78797" y1="55.1337" x2="15.761" y2="71.7459" gradientUnits="userSpaceOnUse">
<stop stop-color="#CB236D"/>
<stop offset="1" stop-color="#4C246D"/>
</linearGradient>
<linearGradient id="paint56_linear_93_956" x1="46.3267" y1="56.8505" x2="23.8571" y2="81.2911" gradientUnits="userSpaceOnUse">
<stop stop-color="#FDF53F"/>
<stop offset="1" stop-color="#D93C65"/>
</linearGradient>
<linearGradient id="paint57_linear_93_956" x1="39.0332" y1="58.6661" x2="41.0291" y2="58.6661" gradientUnits="userSpaceOnUse">
<stop stop-color="#F9B776"/>
<stop offset="1" stop-color="#F47960"/>
</linearGradient>
<linearGradient id="paint58_linear_93_956" x1="43.8984" y1="42.5908" x2="24.7886" y2="44.8227" gradientUnits="userSpaceOnUse">
<stop stop-color="#2B3582"/>
<stop offset="1" stop-color="#150E42"/>
</linearGradient>
<linearGradient id="paint59_linear_93_956" x1="41.2859" y1="52.2165" x2="18.8164" y2="76.6571" gradientUnits="userSpaceOnUse">
<stop stop-color="#FDF53F"/>
<stop offset="1" stop-color="#D93C65"/>
</linearGradient>
<linearGradient id="paint60_linear_93_956" x1="31.8403" y1="58.5636" x2="33.5637" y2="58.5636" gradientUnits="userSpaceOnUse">
<stop stop-color="#F9B776"/>
<stop offset="1" stop-color="#F47960"/>
</linearGradient>
<linearGradient id="paint61_linear_93_956" x1="30.4806" y1="25.8622" x2="19.9243" y2="-10.7743" gradientUnits="userSpaceOnUse">
<stop stop-color="#2B3582"/>
<stop offset="1" stop-color="#150E42"/>
</linearGradient>
<linearGradient id="paint62_linear_93_956" x1="41.9467" y1="8.97767" x2="42.9619" y2="7.96247" gradientUnits="userSpaceOnUse">
<stop stop-color="#F9B776"/>
<stop offset="1" stop-color="#F47960"/>
</linearGradient>
<linearGradient id="paint63_linear_93_956" x1="30.8512" y1="6.68724" x2="45.3588" y2="38.7892" gradientUnits="userSpaceOnUse">
<stop stop-color="#F9B776"/>
<stop offset="1" stop-color="#F47960"/>
</linearGradient>
<linearGradient id="paint64_linear_93_956" x1="31.8082" y1="5.18746" x2="48.9611" y2="43.1425" gradientUnits="userSpaceOnUse">
<stop stop-color="#F9B776"/>
<stop offset="1" stop-color="#F47960"/>
</linearGradient>
<linearGradient id="paint65_linear_93_956" x1="35.557" y1="15.9692" x2="29.0451" y2="36.1133" gradientUnits="userSpaceOnUse">
<stop stop-color="#53D8FF"/>
<stop offset="1" stop-color="#3840F7"/>
</linearGradient>
<linearGradient id="paint66_linear_93_956" x1="28.2619" y1="14.4266" x2="40.225" y2="14.4266" gradientUnits="userSpaceOnUse">
<stop stop-color="#2B3582"/>
<stop offset="1" stop-color="#150E42"/>
</linearGradient>
<linearGradient id="paint67_linear_93_956" x1="25.1806" y1="18.6496" x2="24.4399" y2="20.0079" gradientUnits="userSpaceOnUse">
<stop stop-color="#F9B776"/>
<stop offset="1" stop-color="#F47960"/>
</linearGradient>
<linearGradient id="paint68_linear_93_956" x1="28.9627" y1="26.6513" x2="33.6826" y2="26.6513" gradientUnits="userSpaceOnUse">
<stop stop-color="#F9B776"/>
<stop offset="1" stop-color="#F47960"/>
</linearGradient>
<linearGradient id="paint69_linear_93_956" x1="42.5183" y1="1.41428" x2="57.0259" y2="33.5165" gradientUnits="userSpaceOnUse">
<stop stop-color="#F9B776"/>
<stop offset="1" stop-color="#F47960"/>
</linearGradient>
<linearGradient id="paint70_linear_93_956" x1="44.953" y1="3.72348" x2="43.3068" y2="5.89121" gradientUnits="userSpaceOnUse">
<stop stop-color="#F9B776"/>
<stop offset="1" stop-color="#F47960"/>
</linearGradient>
<linearGradient id="paint71_linear_93_956" x1="45.3165" y1="3.99949" x2="43.6703" y2="6.16723" gradientUnits="userSpaceOnUse">
<stop stop-color="#F9B776"/>
<stop offset="1" stop-color="#F47960"/>
</linearGradient>
<linearGradient id="paint72_linear_93_956" x1="45.7582" y1="4.3351" x2="44.1117" y2="6.50283" gradientUnits="userSpaceOnUse">
<stop stop-color="#F9B776"/>
<stop offset="1" stop-color="#F47960"/>
</linearGradient>
<linearGradient id="paint73_linear_93_956" x1="36.488" y1="3.65178" x2="31.8371" y2="11.837" gradientUnits="userSpaceOnUse">
<stop stop-color="#F9B776"/>
<stop offset="1" stop-color="#F47960"/>
</linearGradient>
<linearGradient id="paint74_linear_93_956" x1="32.4242" y1="6.00444" x2="39.1474" y2="5.12159" gradientUnits="userSpaceOnUse">
<stop stop-color="#2B3582"/>
<stop offset="1" stop-color="#150E42"/>
</linearGradient>
<linearGradient id="paint75_linear_93_956" x1="29.0188" y1="10.6307" x2="32.925" y2="5.40641" gradientUnits="userSpaceOnUse">
<stop stop-color="#F9B776"/>
<stop offset="1" stop-color="#F47960"/>
</linearGradient>
<linearGradient id="paint76_linear_93_956" x1="43.6798" y1="49.9966" x2="25.5708" y2="75.788" gradientUnits="userSpaceOnUse">
<stop stop-color="#FDF53F"/>
<stop offset="1" stop-color="#D93C65"/>
</linearGradient>
<linearGradient id="paint77_linear_93_956" x1="39.5866" y1="49.8883" x2="36.5771" y2="53.6726" gradientUnits="userSpaceOnUse">
<stop stop-color="#FDF53F"/>
<stop offset="1" stop-color="#D93C65"/>
</linearGradient>
<linearGradient id="paint78_linear_93_956" x1="40.8008" y1="44.3723" x2="41.9366" y2="61.9773" gradientUnits="userSpaceOnUse">
<stop stop-color="#41A362"/>
<stop offset="1" stop-color="#204F2E"/>
</linearGradient>
<linearGradient id="paint79_linear_93_956" x1="35.9939" y1="50.9489" x2="34.1009" y2="56.123" gradientUnits="userSpaceOnUse">
<stop stop-color="#41A362"/>
<stop offset="0.48" stop-color="#317B49"/>
<stop offset="1" stop-color="#204F2E"/>
</linearGradient>
<linearGradient id="paint80_linear_93_956" x1="22.6004" y1="49.1997" x2="9.29861" y2="69.1526" gradientUnits="userSpaceOnUse">
<stop stop-color="#CB236D"/>
<stop offset="1" stop-color="#4C246D"/>
</linearGradient>
<linearGradient id="paint81_linear_93_956" x1="27.5729" y1="57.4171" x2="20.2521" y2="70.749" gradientUnits="userSpaceOnUse">
<stop stop-color="#52F0C0"/>
<stop offset="1" stop-color="#9F71FB"/>
</linearGradient>
<linearGradient id="paint82_linear_93_956" x1="23.6747" y1="59.4818" x2="18.5244" y2="73.7967" gradientUnits="userSpaceOnUse">
<stop stop-color="#52F0C0"/>
<stop offset="1" stop-color="#9F71FB"/>
</linearGradient>
<linearGradient id="paint83_linear_93_956" x1="37.0344" y1="59.4745" x2="27.804" y2="71.6101" gradientUnits="userSpaceOnUse">
<stop stop-color="#52F0C0"/>
<stop offset="1" stop-color="#9F71FB"/>
</linearGradient>
<linearGradient id="paint84_linear_93_956" x1="25.8688" y1="62.8597" x2="30.4423" y2="77.3688" gradientUnits="userSpaceOnUse">
<stop stop-color="#52F0C0"/>
<stop offset="1" stop-color="#9F71FB"/>
</linearGradient>
</defs>
</svg>
