<svg width="16" height="17" viewBox="0 0 16 17" fill="none" xmlns="http://www.w3.org/2000/svg">
<path d="M9.45101 4.40057C9.16538 4.34781 8.90306 4.53008 8.84869 4.80889C8.79431 5.0877 8.97716 5.35991 9.25501 5.41447C10.0916 5.57756 10.7375 6.22512 10.9012 7.06454V7.06514C10.9478 7.30677 11.1606 7.48245 11.4056 7.48245C11.4384 7.48245 11.4713 7.47946 11.5048 7.47346C11.7826 7.4177 11.9655 7.14608 11.9111 6.86668C11.6667 5.61294 10.7017 4.6446 9.45101 4.40057" fill="#81BC3D"/>
<path d="M9.41366 2.3114C9.27981 2.29221 9.14536 2.33178 9.0384 2.41693C8.92845 2.50327 8.85974 2.62798 8.8448 2.76769C8.81313 3.05009 9.01689 3.30552 9.29893 3.33729C11.2439 3.55434 12.7557 5.0695 12.9744 7.02056C13.0037 7.28199 13.223 7.47925 13.4847 7.47925C13.5044 7.47925 13.5235 7.47805 13.5433 7.47565C13.6801 7.46066 13.802 7.39291 13.888 7.28498C13.9735 7.17706 14.0123 7.04275 13.9968 6.90544C13.7243 4.47112 11.8403 2.58181 9.41366 2.3114" fill="#81BC3D"/>
<path fill-rule="evenodd" clip-rule="evenodd" d="M7.38735 8.92171C9.76681 11.3005 10.3066 8.5485 11.8216 10.0625C13.2822 11.5226 14.1217 11.8152 12.2711 13.6652C12.0393 13.8515 10.5666 16.0926 5.39082 10.9183C0.214416 5.74337 2.45428 4.26911 2.64061 4.03738C4.49564 2.18223 4.78315 3.02658 6.24373 4.48676C7.75874 6.00135 5.0079 6.54292 7.38735 8.92171Z" fill="#81BC3D"/>
</svg>
